<svg width="110" height="114" viewBox="0 0 110 114" fill="none" xmlns="http://www.w3.org/2000/svg">
<path fill-rule="evenodd" clip-rule="evenodd" d="M54.624 50.976C58.272 50.976 61.248 53.952 61.248 57.6C61.248 61.248 58.272 64.224 54.624 64.224C50.976 64.224 48 61.248 48 57.6C48 53.952 50.976 50.976 54.624 50.976ZM54.624 54.624C56.256 54.624 57.6 55.968 57.6 57.6C57.6 59.232 56.256 60.576 54.624 60.576C52.992 60.576 51.744 59.232 51.744 57.6C51.744 55.968 52.992 54.624 54.624 54.624Z" fill="#004D71"/>
<path d="M69.9838 43.776C69.8878 43.872 69.8878 43.968 69.8878 43.968C69.8878 44.16 69.9838 44.256 70.0798 44.352C70.2718 44.544 70.4638 44.64 70.5598 44.64C70.6558 44.64 70.7518 44.64 70.8478 44.64V44.544C70.9438 44.448 70.9438 44.352 70.9438 44.16C70.8478 44.064 70.7518 43.872 70.5598 43.68C70.5598 43.584 70.4638 43.584 70.4638 43.488C70.2718 43.2 70.1758 42.912 70.1758 42.624C70.2718 42.336 70.3678 42.144 70.5598 41.952C70.6558 41.952 70.6558 41.856 70.7518 41.856C70.9438 41.664 71.3278 41.568 71.6158 41.568C71.9038 41.664 72.1918 41.76 72.4798 42.048C72.6718 42.24 72.8638 42.528 72.8638 42.816C72.9598 43.104 72.9598 43.392 72.8638 43.68L72.1918 43.296C72.1918 43.2 72.1918 43.104 72.1918 43.008C72.0958 42.816 71.9998 42.72 71.9038 42.624C71.8078 42.432 71.6158 42.432 71.5198 42.432C71.4238 42.336 71.3278 42.432 71.1358 42.528C71.0398 42.624 71.0398 42.624 71.0398 42.72C71.0398 42.816 71.0398 42.912 71.1358 43.104C71.1358 43.104 71.1358 43.104 71.2318 43.104C71.4238 43.392 71.6158 43.68 71.7118 43.968C71.8078 44.352 71.8078 44.736 71.4238 45.12C71.1358 45.408 70.8478 45.504 70.4638 45.408C70.1758 45.408 69.8878 45.216 69.5998 44.928C69.5998 44.928 69.5038 44.928 69.5038 44.832C69.3118 44.64 69.1198 44.352 69.1198 44.064C69.1198 43.872 69.1198 43.584 69.3118 43.296L69.9838 43.776ZM36.8638 42.816C36.9598 42.912 37.0558 43.008 37.1518 43.104C37.4398 43.296 37.7278 43.68 38.1118 43.872C38.5918 44.352 39.1678 44.64 39.5518 44.16C39.7438 43.872 39.8398 43.584 39.6478 43.2C39.4558 42.72 38.9758 42.144 38.1118 41.472L38.6878 40.896C39.5518 41.664 40.1278 42.336 40.4158 42.912C40.7038 43.584 40.6078 44.16 40.1278 44.736C39.3598 45.6 38.3998 45.216 37.5358 44.544C37.2478 44.256 36.9598 43.872 36.6718 43.68C36.5758 43.488 36.4798 43.488 36.3838 43.392L36.8638 42.816ZM41.2798 42.816L39.3598 40.032L39.8398 39.648L42.8158 40.224L41.7598 38.496L42.4318 38.112L44.0638 40.608L44.2558 40.992L43.6798 41.376L40.7038 40.608L41.9518 42.432L41.2798 42.816ZM43.8718 37.248L45.3118 40.032L44.6398 40.416L43.1998 37.632L43.8718 37.248ZM45.2158 36.384L47.0398 38.304L47.2318 35.808H47.9998L47.4238 39.552L44.6398 36.864L45.2158 36.384ZM51.3598 35.424C51.2638 35.424 51.0718 35.424 50.9758 35.52C50.3998 35.616 49.7278 35.712 49.7278 35.904C49.7278 36.096 49.7278 36.288 49.7278 36.48L51.2638 36.096L51.4558 36.864L49.9198 37.248C49.9198 37.344 50.0158 37.44 50.0158 37.632L50.1118 37.824C50.1118 37.824 50.3038 37.824 50.4958 37.728C50.8798 37.728 51.3598 37.536 51.6478 37.44L51.9358 38.208C51.5518 38.304 51.0718 38.496 50.5918 38.496C50.0158 38.592 49.5358 38.496 49.3438 38.112V37.824C49.0558 37.056 48.8638 36.672 48.9598 35.904C48.9598 35.04 50.0158 34.848 50.8798 34.752C50.9758 34.656 51.1678 34.656 51.2638 34.656L51.3598 35.424ZM55.8718 38.208C55.6798 37.824 55.4878 37.536 55.2958 37.248C55.1038 37.152 55.0078 36.96 54.9118 36.864C54.6238 36.864 54.3358 36.864 54.0478 36.864H53.9518V37.92H53.1838V34.848V34.56L53.4718 34.464C53.6638 34.464 53.7598 34.464 53.9518 34.464C54.4318 34.368 55.0078 34.368 55.3918 34.464C55.8718 34.656 56.2558 34.944 56.3518 35.52C56.3518 35.52 56.3518 35.52 56.3518 35.616C56.4478 36 56.2558 36.288 55.9678 36.48C55.8718 36.576 55.7758 36.576 55.7758 36.672L55.8718 36.768C56.0638 37.056 56.3518 37.344 56.5438 37.824L55.8718 38.208ZM53.9518 35.232V36.096H54.0478C54.3358 36.096 54.6238 36.096 55.0078 36.096C55.1998 36.096 55.2958 36 55.4878 35.904C55.5838 35.808 55.5838 35.712 55.5838 35.712C55.5838 35.616 55.5838 35.616 55.5838 35.616C55.5838 35.424 55.3918 35.328 55.1998 35.232C54.9118 35.136 54.4318 35.136 54.0478 35.232H53.9518ZM58.0798 37.44C58.0798 37.536 58.2718 37.632 58.3678 37.728C58.4638 37.824 58.6558 37.92 58.7518 37.92C58.9438 37.92 59.1358 37.824 59.2318 37.824C59.3278 37.728 59.4238 37.632 59.4238 37.536C59.4238 37.344 59.4238 37.248 59.3278 37.248C59.3278 37.152 59.1358 37.152 59.0398 37.056H58.9438C58.5598 37.056 58.2718 36.864 57.9838 36.672C57.7918 36.384 57.5998 36.096 57.6958 35.808C57.6958 35.424 57.8878 35.136 58.1758 35.04C58.4638 34.848 58.7518 34.752 59.1358 34.752C59.4238 34.848 59.7118 34.944 59.9038 35.136C60.0958 35.328 60.1918 35.52 60.2878 35.616L59.6158 36C59.5198 35.904 59.4238 35.808 59.3278 35.712C59.2318 35.616 59.1358 35.616 59.0398 35.52C58.8478 35.52 58.7518 35.616 58.6558 35.616C58.5598 35.712 58.4638 35.808 58.4638 35.808C58.4638 35.904 58.4638 36 58.5598 36.096C58.6558 36.192 58.8478 36.288 59.0398 36.288C59.0398 36.288 59.1358 36.288 59.2318 36.288C59.5198 36.384 59.7118 36.48 59.9038 36.672C60.0958 36.96 60.1918 37.152 60.1918 37.536C60.1918 37.632 60.1918 37.632 60.1918 37.728C60.0958 38.112 59.9038 38.304 59.6158 38.496C59.3278 38.592 59.0398 38.688 58.6558 38.688C58.3678 38.688 58.1758 38.592 57.8878 38.4C57.6958 38.208 57.5038 38.016 57.4078 37.824L58.0798 37.44ZM62.3998 35.904L61.3438 38.976L60.5758 38.688L61.6318 35.616L62.3998 35.904ZM63.0718 39.552L64.2238 37.344L63.3598 36.864L63.7438 36.192L66.1438 37.44L65.8558 38.112L64.9918 37.728L63.7438 39.936L63.0718 39.552ZM67.0078 39.84C67.2958 40.032 67.5838 40.128 67.8718 40.32C68.0638 40.512 68.2558 40.704 68.4478 40.992C68.8318 40.416 69.0238 39.936 68.5438 39.648C67.9678 39.264 67.4878 39.456 67.0078 39.84ZM67.3918 40.992C67.1038 40.8 66.8158 40.608 66.5278 40.416C66.4318 40.512 66.4318 40.608 66.3358 40.704C66.2398 40.896 66.1438 41.088 65.9518 41.184L65.3758 40.704C65.4718 40.512 65.5678 40.416 65.7598 40.224C66.5278 39.168 67.3918 37.92 68.9278 38.976C69.9838 39.648 69.6958 40.512 69.1198 41.376C68.9278 41.76 68.6398 42.048 68.3518 42.336C68.2558 42.432 68.1598 42.624 68.0638 42.72L67.4878 42.144C67.5838 42.048 67.6798 41.952 67.7758 41.856C67.8718 41.76 67.9678 41.664 67.9678 41.568C67.7758 41.376 67.5838 41.184 67.3918 40.992Z" fill="#004D71"/>
<path d="M38.4956 69.12L39.6476 70.464L39.9356 70.848L39.5516 71.04C39.4556 71.232 39.2636 71.328 39.1676 71.424C38.5916 71.904 38.1116 72.384 37.5356 72.576C37.2476 72.672 36.8636 72.672 36.5756 72.48C36.2876 72.384 35.9996 72.192 35.8076 71.904C35.6156 71.616 35.4236 71.328 35.4236 70.944C35.3276 70.56 35.3276 70.176 35.4236 69.888L36.1916 70.176C36.1916 70.368 36.0956 70.56 36.1916 70.848C36.1916 71.04 36.2876 71.232 36.3836 71.424C36.4796 71.52 36.6716 71.712 36.8636 71.808C37.0556 71.808 37.1516 71.808 37.2476 71.808C37.7276 71.616 38.2076 71.232 38.5916 70.848C38.6876 70.848 38.6876 70.752 38.7836 70.752L37.8236 69.696L38.4956 69.12Z" fill="#004D71"/>
<path d="M39.3605 72.7679C39.3605 72.7679 39.4565 72.6719 39.5525 72.5759C39.8405 72.3839 40.2245 72.1919 40.7045 72.0959C41.1845 72.0959 41.6645 72.1919 42.0485 72.6719C42.1445 72.7679 42.1445 72.7679 42.2405 72.8639C42.6245 73.3439 42.6245 73.8239 42.5285 74.2079C42.4325 74.7839 42.0485 75.2639 41.7605 75.5519C41.6645 75.5519 41.6645 75.5519 41.6645 75.5519C41.3765 75.8399 40.8965 75.9359 40.4165 75.9359C39.9365 75.8399 39.4565 75.7439 39.1685 75.3599V75.2639C38.8805 74.8799 38.6885 74.4959 38.6885 74.0159C38.6885 73.5359 38.8805 73.1519 39.3605 72.7679ZM40.0325 73.2479C39.9365 73.2479 39.9365 73.3439 39.8405 73.3439C39.6485 73.6319 39.4565 73.8239 39.4565 74.0159C39.4565 74.3039 39.5525 74.5919 39.7445 74.7839C39.7445 74.7839 39.7445 74.7839 39.7445 74.8799C39.9365 74.9759 40.2245 75.0719 40.4165 75.0719C40.7045 75.1679 40.9925 75.0719 41.1845 74.9759V74.8799C41.4725 74.6879 41.7605 74.3999 41.7605 74.0159C41.8565 73.8239 41.7605 73.6319 41.5685 73.3439C41.5685 73.2479 41.5685 73.2479 41.4725 73.2479C41.2805 72.9599 40.9925 72.8639 40.8005 72.8639C40.5125 72.9599 40.2245 73.0559 40.0325 73.2479Z" fill="#004D71"/>
<path d="M45.1198 75.744C45.0238 75.648 44.9278 75.456 44.7358 75.36C44.6398 75.168 44.5438 75.072 44.4478 75.072C44.2558 75.072 43.9678 75.072 43.6798 75.264C43.4878 75.36 43.1998 75.552 43.1038 75.84C43.0078 76.128 42.9118 76.512 43.0078 76.8C43.1038 77.088 43.1998 77.376 43.4878 77.472C43.6798 77.568 43.8718 77.664 44.0638 77.664C44.2558 77.76 44.3518 77.76 44.5438 77.664C44.6398 77.568 44.7358 77.28 44.8318 77.088C44.6398 76.992 44.3518 76.896 44.1598 76.8C43.9678 76.704 43.8718 76.704 43.7758 76.608L44.0638 75.84C44.1598 75.936 44.2558 75.936 44.4478 76.032C44.8318 76.224 45.3118 76.416 45.5998 76.608L45.7918 76.8L45.6958 77.088C45.6958 77.088 45.6958 77.088 45.6958 77.184C45.5038 77.664 45.3118 78.048 44.8318 78.336C44.5438 78.528 44.2558 78.528 43.9678 78.528C43.6798 78.432 43.3918 78.336 43.1038 78.144C42.6238 77.952 42.3358 77.472 42.2398 76.992C42.1438 76.512 42.2398 75.936 42.4318 75.456C42.6238 75.072 42.9118 74.688 43.3918 74.496C43.7758 74.304 44.2558 74.208 44.6398 74.304C44.9278 74.4 45.1198 74.592 45.3118 74.784C45.5998 74.976 45.7918 75.264 45.7918 75.552L45.1198 75.744Z" fill="#004D71"/>
<path d="M48.1917 76.1281C48.4797 76.2241 48.6717 76.3201 48.8637 76.3201C49.1517 76.4161 49.4397 76.5121 49.7277 76.6081L50.1117 76.7041L50.0157 77.0881C50.0157 77.5681 49.9197 77.9521 49.7277 78.3361C49.6317 78.6241 49.5357 79.0081 49.3437 79.3921C49.1517 79.6801 48.8637 79.8721 48.4797 79.9681C48.1917 80.0641 47.8077 80.0641 47.4237 79.9681C46.9437 79.7761 46.5597 79.5841 46.3677 79.2961C46.1757 79.0081 45.9837 78.7201 45.8877 78.3361L46.6557 78.2401C46.7517 78.4321 46.8477 78.6241 46.9437 78.7201C47.1357 78.9121 47.3277 79.1041 47.7117 79.2001C47.9037 79.2961 48.0957 79.2961 48.2877 79.2001C48.4797 79.2001 48.5757 79.1041 48.6717 79.0081C48.7677 78.7201 48.9597 78.4321 49.0557 78.0481C49.0557 77.8561 49.1517 77.5681 49.2477 77.2801C49.0557 77.1841 48.8637 77.1841 48.6717 77.0881C48.3837 76.9921 48.1917 76.8961 47.9037 76.8001L48.1917 76.1281Z" fill="#004D71"/>
<path d="M51.5521 78.9119C51.9361 78.9119 52.2241 78.9119 52.5121 79.0079C52.8961 79.0079 53.1841 79.0079 53.5681 79.1039C53.5681 78.4319 53.3761 77.8559 52.7041 77.7599C52.7041 77.7599 52.7041 77.7599 52.6081 77.7599C52.3201 77.7599 52.0321 78.0479 51.8401 78.4319C51.7441 78.5279 51.6481 78.7199 51.5521 78.9119ZM52.4161 79.7759C52.1281 79.6799 51.7441 79.6799 51.3601 79.6799C51.3601 79.7759 51.3601 79.9679 51.3601 80.0639C51.3601 80.1599 51.3601 80.3519 51.3601 80.4479H50.4961C50.4961 80.3519 50.5921 80.1599 50.5921 79.9679C50.5921 79.2959 50.7841 78.5279 51.1681 78.0479C51.4561 77.3759 52.0321 76.9919 52.6081 76.9919C52.7041 76.9919 52.7041 76.9919 52.8001 76.9919C54.5281 77.1839 54.4321 78.8159 54.2401 80.2559C54.2401 80.4479 54.2401 80.6399 54.2401 80.8319L53.4721 80.7359C53.4721 80.5439 53.4721 80.3519 53.4721 80.1599C53.4721 80.0639 53.4721 79.9679 53.5681 79.8719C53.1841 79.8719 52.8001 79.7759 52.4161 79.7759Z" fill="#004D71"/>
<path d="M56.1596 77.376V78.336L57.8876 76.896L58.3676 77.472L57.1196 78.528L58.6556 80.064L58.0796 80.544L56.5436 79.104L56.2556 79.296V80.64H55.4876L55.3916 77.376H56.1596Z" fill="#004D71"/>
<path d="M59.9998 79.8719C59.7118 79.0079 59.5198 78.3359 59.6158 77.6639C59.6158 76.8959 59.9998 76.3199 60.7678 75.9359C61.5358 75.7439 62.0158 76.0319 62.4958 76.6079C62.7838 77.1839 63.0718 77.9519 63.3598 78.9119L62.5918 79.1039C62.4958 78.9119 62.3998 78.6239 62.3998 78.3359L60.5758 78.9119C60.5758 79.1999 60.6718 79.3919 60.7678 79.6799L59.9998 79.8719ZM60.3838 77.6639C60.3838 77.8559 60.3838 77.9519 60.3838 78.1439L62.1118 77.6639C62.0158 77.3759 61.9198 77.1839 61.8238 77.0879C61.6318 76.7999 61.3438 76.6079 61.0558 76.7039C60.5758 76.8959 60.3838 77.1839 60.3838 77.6639Z" fill="#004D71"/>
<path d="M65.1844 78.24L63.5524 75.648L63.3604 75.36L63.6484 75.168C63.8404 74.976 64.0324 74.88 64.2244 74.784C64.6084 74.496 64.9924 74.304 65.3764 74.016C65.6644 73.824 66.0484 73.824 66.4324 73.92C66.6244 74.016 66.8164 74.112 66.9124 74.304C67.1044 74.4 67.2004 74.688 67.2004 74.88C67.1044 75.168 67.1044 75.36 66.9124 75.648C67.0084 75.648 67.1044 75.648 67.2004 75.744C67.6804 75.744 67.9684 75.936 68.3524 76.128L67.9684 76.8C67.6804 76.608 67.3924 76.512 67.1044 76.512C66.8164 76.416 66.6244 76.416 66.3364 76.512C66.1444 76.704 65.9524 76.896 65.7604 76.992C65.6644 77.088 65.5684 77.088 65.4724 77.184L65.8564 77.76L65.1844 78.24ZM64.4164 75.552L64.9924 76.512C65.0884 76.512 65.1844 76.416 65.2804 76.32C65.4724 76.224 65.6644 76.128 65.7604 75.936C66.2404 75.456 66.3364 75.072 66.3364 74.88C66.3364 74.784 66.3364 74.784 66.3364 74.784C66.3364 74.688 66.2404 74.688 66.2404 74.688C66.0484 74.592 65.8564 74.688 65.7604 74.688C65.3764 74.88 64.9924 75.168 64.7044 75.456C64.6084 75.456 64.5124 75.552 64.4164 75.552Z" fill="#004D71"/>
<path d="M70.0799 74.688C69.7919 74.208 69.5039 73.824 69.1199 73.536C68.9279 73.248 68.7359 72.96 68.4479 72.768L67.7759 73.344L67.2959 72.768L69.3119 71.04L69.7919 71.616L69.0239 72.288C69.3119 72.48 69.5039 72.672 69.7919 72.96C70.0799 73.344 70.4639 73.728 70.7519 74.208L70.0799 74.688Z" fill="#004D71"/>
<path d="M72.5758 72.384C72.4798 72.192 72.2878 72.096 72.1918 72C71.2318 71.232 70.0798 70.272 71.0398 68.832C71.8078 67.68 72.6718 67.968 73.5358 68.544C73.7278 68.736 74.0158 68.928 74.3038 69.12C74.4958 69.312 74.6878 69.408 74.8798 69.6L74.3998 70.176C74.2078 70.08 74.0158 69.888 73.7278 69.696L72.5758 71.328L72.6718 71.424C72.8638 71.52 72.9598 71.616 73.0558 71.808L72.5758 72.384ZM71.7118 69.216C71.3278 69.792 71.6158 70.368 71.9998 70.752L73.1518 69.216C73.0558 69.216 73.0558 69.216 73.0558 69.216C72.5758 68.832 72.0958 68.64 71.7118 69.216Z" fill="#004D71"/>
<path d="M65.856 34.848C66.048 34.656 65.856 34.56 66.048 34.464C66.24 34.272 67.872 32.544 67.968 32.352C68.736 31.488 69.312 30.72 69.888 29.856C70.56 29.088 71.04 28.224 71.808 26.976C72.576 25.632 73.344 24.288 73.728 22.752C74.112 21.312 74.208 19.68 73.536 17.568C73.056 16.224 72.192 15.168 71.04 14.304C69.792 13.536 68.16 12.96 66.24 12.576C63.84 12.192 62.112 11.52 60.576 11.04C60 10.848 59.424 10.656 58.848 10.464C57.888 10.176 57.12 9.696 56.352 9.12C55.68 8.64 55.2 8.16 54.624 7.488C54.144 8.16 53.568 8.64 52.992 9.12C52.224 9.696 51.36 10.176 50.496 10.464C49.92 10.656 49.344 10.848 48.768 11.04C47.232 11.52 45.504 12.192 43.104 12.576C41.184 12.96 39.552 13.536 38.304 14.304C37.056 15.168 36.192 16.224 35.808 17.568C35.136 19.68 35.136 21.312 35.616 22.752C36 24.288 36.768 25.632 37.536 26.976C38.208 28.224 38.784 29.088 39.36 29.856C39.936 30.72 40.608 31.488 41.376 32.352C41.664 32.736 42.048 33.12 42.432 33.504C42.528 33.6 42.24 33.888 42.432 34.08L42.528 34.176L42.24 34.848L42.048 34.752C41.568 34.176 40.992 33.696 40.512 33.12C39.744 32.16 39.072 31.392 38.496 30.528C37.824 29.664 37.248 28.8 36.576 27.552C35.712 26.112 34.944 24.768 34.464 23.04C34.08 21.408 33.984 19.584 34.752 17.28C35.232 15.552 36.288 14.304 37.728 13.44C39.072 12.48 40.8 11.904 42.912 11.52C45.216 11.04 46.848 10.464 48.384 9.984C48.96 9.792 49.536 9.6 50.112 9.408C50.976 9.12 51.648 8.736 52.32 8.256C52.992 7.68 53.664 7.008 54.24 6.24L54.624 5.664L55.104 6.24C55.68 7.008 56.256 7.68 57.024 8.256C57.696 8.736 58.368 9.12 59.136 9.408C59.808 9.6 60.384 9.792 60.96 9.984C62.4 10.464 64.128 11.04 66.432 11.52C68.448 11.904 70.272 12.48 71.616 13.44C73.056 14.304 74.112 15.552 74.592 17.28C75.264 19.584 75.264 21.408 74.784 23.04C74.4 24.768 73.632 26.112 72.768 27.552C72 28.8 71.424 29.664 70.848 30.528C70.272 31.392 69.6 32.16 68.832 33.12C68.64 33.312 68.544 33.408 68.352 33.6C68.352 33.696 67.968 34.08 67.584 34.464C67.008 34.944 67.584 33.6 67.488 33.696L65.856 34.848ZM36.192 39.552C36.096 39.36 35.232 39.36 35.232 39.168C34.848 38.496 34.56 37.824 34.272 37.248C33.696 36.192 33.12 35.424 32.544 34.56C31.968 33.696 31.392 32.928 30.432 31.872C29.472 30.624 28.416 29.472 27.168 28.608C25.92 27.744 24.384 27.072 22.272 26.976C20.736 26.976 19.488 27.36 18.336 28.224C17.088 29.184 16.032 30.528 15.072 32.256C13.824 34.368 12.672 35.712 11.712 36.96C11.328 37.44 10.944 37.92 10.56 38.4C9.984 39.168 9.216 39.84 8.448 40.32C7.776 40.8 7.104 41.088 6.336 41.376C6.72 42.048 7.104 42.72 7.296 43.488C7.584 44.352 7.776 45.312 7.68 46.272C7.68 46.944 7.68 47.52 7.68 48.192C7.68 49.728 7.584 51.552 7.2 53.952C6.912 55.872 6.912 57.6 7.296 59.04C7.584 60.48 8.256 61.632 9.504 62.592C11.232 63.84 12.768 64.416 14.304 64.512C15.84 64.608 17.376 64.32 18.912 64.032C20.256 63.84 21.312 63.552 22.272 63.264C23.232 63.072 24.192 62.688 25.248 62.304C25.92 62.112 26.688 61.728 27.456 61.344C28.032 61.056 28.8 60.768 29.376 60.576L29.568 61.056L28.32 61.824C27.936 61.92 28.896 61.92 28.416 62.112C28.224 62.208 28.032 62.304 27.936 62.4C27.168 62.784 26.4 63.072 25.632 63.36C24.48 63.744 23.52 64.128 22.56 64.416C21.6 64.704 20.448 64.896 19.104 65.184C17.472 65.472 15.84 65.76 14.208 65.664C12.48 65.472 10.752 64.896 8.832 63.456C7.392 62.4 6.528 60.96 6.144 59.328C5.76 57.696 5.856 55.872 6.144 53.76C6.528 51.456 6.528 49.728 6.528 48.096C6.528 47.52 6.528 46.848 6.624 46.272C6.624 45.408 6.528 44.64 6.24 43.872C5.952 43.008 5.568 42.144 4.992 41.376L4.608 40.704L5.376 40.512C6.24 40.224 7.104 39.936 7.872 39.456C8.544 38.976 9.12 38.4 9.6 37.728C9.984 37.248 10.368 36.768 10.848 36.288C11.808 35.04 12.864 33.696 14.112 31.68C15.168 29.856 16.32 28.416 17.664 27.36C19.008 26.304 20.544 25.824 22.272 25.92C24.672 26.016 26.4 26.688 27.84 27.648C29.184 28.608 30.24 29.856 31.296 31.104C32.256 32.16 32.928 33.024 33.504 33.888C34.08 34.752 34.56 35.616 35.232 36.672C35.616 37.248 35.904 38.016 36.192 38.688C36.288 38.88 36.384 39.072 36.48 39.264L36.192 39.552ZM39.264 37.056L38.4 36.576L35.04 31.872C33.696 29.952 32.256 28.032 30.816 26.016L30.72 25.824C29.664 24.576 28.32 23.808 26.688 23.232C24.96 22.56 22.944 22.272 21.12 22.368C19.2 22.464 17.472 23.136 15.936 24.096C14.112 25.248 12.576 26.784 11.52 28.32C10.56 29.76 9.888 30.912 9.312 31.968C8.448 33.408 7.776 34.56 6.624 36.096C5.76 37.248 5.28 38.208 4.32 38.784C3.648 39.168 2.784 39.552 2.016 39.744C2.496 40.512 2.88 41.184 3.168 42.048C3.552 43.104 3.264 44.16 3.168 45.6C3.168 47.52 2.976 48.864 2.688 50.496C2.496 51.648 2.304 52.992 2.112 54.72C1.92 56.64 2.016 58.752 2.784 60.768C3.36 62.496 4.32 64.128 5.664 65.376C7.104 66.72 8.832 67.776 10.56 68.448C12.096 69.024 13.728 69.216 15.168 69.024C15.456 68.928 15.648 68.832 15.936 68.832C18.336 67.968 20.64 67.296 22.848 66.72C24.96 66.048 27.072 65.376 29.088 64.8C29.472 64.704 29.664 65.088 30.048 64.992H30.432L30.528 65.472C30.24 65.568 30.048 65.76 29.76 65.856C27.648 66.528 25.536 67.104 23.424 67.68L23.136 67.776H23.04C20.736 68.544 18.432 69.216 16.32 69.888C14.976 70.464 13.824 71.712 12.96 73.248C11.808 75.072 10.944 77.28 10.56 79.2C10.176 81.024 10.368 82.944 10.848 84.672C11.52 86.688 12.576 88.608 13.92 89.952C15.072 91.296 15.936 92.256 16.8 93.12C17.952 94.272 18.912 95.232 20.16 96.768C20.928 97.824 21.504 98.976 21.888 100.032C22.08 100.896 22.176 101.664 22.176 102.528C23.04 102.24 23.808 102.048 24.672 102.048C25.824 101.952 27.072 102.048 28.416 102.432C30.24 103.008 31.488 103.584 33.024 104.256C34.08 104.736 35.232 105.216 36.96 105.888C38.688 106.56 40.896 106.944 43.008 106.848C44.832 106.656 46.656 106.176 48.192 105.12C49.824 104.16 51.264 102.72 52.32 101.184C53.28 99.84 53.952 98.4 54.144 96.864C54.048 94.272 54.048 91.872 54.144 89.472C54.048 87.648 54.048 85.824 54.048 83.904C54.048 83.328 54.528 83.232 54.528 82.56L54.816 82.848C54.816 83.52 55.2 83.424 55.2 84.096C55.296 85.92 55.2 87.648 55.2 89.472C55.2 91.872 55.296 94.272 55.2 96.864C55.392 98.4 55.968 99.84 56.928 101.184C58.08 102.72 59.52 104.16 61.152 105.12C62.688 106.176 64.512 106.656 66.336 106.848C68.448 106.944 70.56 106.56 72.384 105.888C74.016 105.216 75.264 104.736 76.32 104.256C77.856 103.584 79.104 103.008 80.928 102.432C82.272 102.048 83.424 101.952 84.576 102.048C85.44 102.048 86.304 102.24 87.072 102.528C87.072 101.664 87.264 100.896 87.456 100.032C87.84 98.976 88.32 97.824 89.184 96.768C90.336 95.232 91.392 94.272 92.544 93.12C93.312 92.256 94.272 91.296 95.424 89.952C96.672 88.608 97.824 86.688 98.496 84.672C98.976 82.944 99.168 81.024 98.784 79.2C98.304 77.28 97.536 75.072 96.384 73.248C95.424 71.712 94.368 70.464 93.024 69.888C90.912 69.216 88.704 68.544 86.592 67.872H86.496L86.304 67.776C84.096 67.2 81.216 66.432 78.72 65.472L78.912 65.184C79.776 65.28 80.256 64.8 80.352 64.8C82.464 65.472 84.864 66.24 86.784 66.816C88.896 67.392 91.008 67.968 93.408 68.832C93.6 68.832 93.888 68.928 94.08 69.024C95.616 69.216 97.248 69.024 98.784 68.448C100.512 67.776 102.24 66.72 103.68 65.376C105.024 64.128 105.984 62.496 106.56 60.768C107.232 58.752 107.424 56.64 107.232 54.72C107.04 52.992 106.848 51.648 106.656 50.496C106.368 48.864 106.176 47.52 106.08 45.6C106.08 44.16 105.696 43.2 106.08 42.048C106.368 41.28 106.752 40.512 107.328 39.84C106.464 39.552 105.696 39.264 104.928 38.784C103.968 38.208 103.584 37.248 102.72 36.096C101.568 34.56 100.8 33.408 100.032 31.968C99.36 30.912 98.688 29.76 97.824 28.32C96.768 26.784 95.232 25.248 93.408 24.096C91.872 23.136 90.048 22.464 88.224 22.368C86.304 22.272 84.288 22.56 82.56 23.136C81.12 23.616 79.776 24.384 78.816 25.344C78.72 25.536 78.72 25.632 78.624 25.728V25.824L70.944 36.48L70.08 37.248L69.216 37.92L69.408 37.344C69.792 36.864 69.504 36.672 69.792 36.192C70.944 34.56 72.096 32.928 73.248 31.296C74.688 29.184 76.224 27.072 77.664 24.96C77.76 24.864 77.856 24.864 77.856 24.768C78.432 23.52 78.72 22.08 78.72 20.64C78.72 18.72 78.24 16.8 77.472 14.976C76.8 13.248 75.552 11.808 74.208 10.656C72.48 9.312 70.56 8.448 68.64 7.968C66.912 7.584 65.664 7.392 64.512 7.104C62.88 6.816 61.536 6.528 59.712 5.952C58.368 5.568 57.312 4.704 56.352 4.032C55.68 3.456 55.2 2.88 54.624 2.208C54.144 2.88 53.568 3.456 52.896 4.032C52.032 4.704 50.976 5.568 49.632 5.952C47.808 6.528 46.464 6.816 44.832 7.104C43.68 7.392 42.336 7.584 40.704 7.968C38.784 8.448 36.864 9.312 35.136 10.656C33.696 11.808 32.544 13.248 31.776 14.976C31.104 16.8 30.624 18.72 30.624 20.64C30.624 22.272 30.912 23.808 31.68 25.152L31.776 25.344L35.808 31.104L36.096 31.392C37.152 32.832 38.304 34.368 39.36 35.904C39.36 35.904 39.648 37.152 39.744 37.344L39.264 37.056ZM13.92 70.176C12.672 70.176 11.424 69.984 10.176 69.504C8.256 68.736 6.432 67.584 4.896 66.24C3.36 64.8 2.304 63.072 1.728 61.152C0.96 58.944 0.768 56.64 0.96 54.624C1.152 52.8 1.344 51.552 1.536 50.304C1.824 48.768 2.016 47.424 2.112 45.504C2.112 44.256 2.496 43.392 2.112 42.432C1.824 41.472 1.248 40.608 0.576 39.744L0 39.072L0.96 38.88C1.92 38.688 2.88 38.304 3.744 37.824C4.608 37.248 4.992 36.48 5.664 35.424C6.816 33.984 7.488 32.832 8.352 31.392C8.928 30.432 9.6 29.28 10.56 27.744C11.712 26.016 13.344 24.384 15.36 23.136C16.992 22.08 19.008 21.312 21.024 21.216C23.04 21.216 25.152 21.504 27.072 22.176C28.032 22.464 28.992 22.944 29.856 23.52C29.568 22.56 29.472 21.6 29.472 20.64C29.472 18.528 29.952 16.416 30.816 14.592C31.584 12.672 32.928 11.04 34.464 9.792C36.288 8.352 38.4 7.392 40.416 6.912C42.144 6.528 43.488 6.24 44.64 6.048C46.176 5.76 47.52 5.472 49.344 4.896C50.496 4.512 51.456 3.84 52.224 3.168C52.992 2.496 53.664 1.728 54.144 0.864L54.624 0L55.104 0.864C55.68 1.728 56.352 2.496 57.12 3.168C57.888 3.84 58.848 4.512 60 4.896C61.824 5.472 63.168 5.76 64.704 6.048C65.856 6.24 67.2 6.528 68.928 6.912C70.944 7.392 73.056 8.352 74.88 9.792C76.416 11.04 77.76 12.672 78.528 14.592C79.296 16.416 79.776 18.528 79.776 20.64C79.872 21.504 79.776 22.464 79.584 23.328C80.352 22.848 81.216 22.464 82.176 22.08C84.096 21.408 86.208 21.216 88.224 21.216C90.336 21.312 92.256 22.08 93.984 23.136C95.904 24.384 97.536 26.016 98.688 27.744C99.744 29.28 100.416 30.432 100.992 31.392C101.76 32.832 102.432 33.984 103.584 35.424C104.352 36.48 104.64 37.344 105.504 37.824C106.368 38.4 107.328 38.688 108.384 38.88L109.248 39.072L108.672 39.84C108 40.608 107.52 41.472 107.136 42.432C106.848 43.392 107.136 44.256 107.232 45.504C107.328 47.424 107.52 48.768 107.712 50.304C107.904 51.552 108.192 52.8 108.384 54.624C108.576 56.64 108.384 58.944 107.616 61.152C107.04 63.072 105.984 64.8 104.352 66.24C102.912 67.584 101.088 68.736 99.168 69.504C97.92 69.984 96.672 70.176 95.424 70.176C96.096 70.944 96.768 71.712 97.344 72.672C98.592 74.592 99.456 76.896 99.84 79.008C100.32 81.024 100.128 83.04 99.552 84.96C98.88 87.168 97.632 89.184 96.288 90.72C95.04 92.064 94.176 93.024 93.312 93.888C92.16 95.04 91.2 96 90.048 97.44C89.28 98.4 88.8 99.36 88.512 100.32C88.224 101.28 88.128 102.336 88.224 103.392L88.32 104.256L87.456 103.872C86.496 103.488 85.536 103.2 84.48 103.104C83.52 103.008 82.464 103.2 81.216 103.488C79.488 104.064 78.24 104.64 76.8 105.216C75.648 105.792 74.4 106.272 72.768 106.944C70.848 107.616 68.544 108.096 66.24 107.904C64.224 107.808 62.304 107.232 60.48 106.08C58.848 104.928 57.216 103.488 56.064 101.856C55.488 100.992 55.008 100.128 54.624 99.264C54.336 100.128 53.856 100.992 53.28 101.856C52.128 103.488 50.496 104.928 48.768 106.08C47.04 107.232 45.024 107.808 43.008 107.904C40.8 108.096 38.496 107.616 36.48 106.944C34.848 106.272 33.696 105.792 32.544 105.216C31.104 104.64 29.856 104.064 28.032 103.488C26.88 103.2 25.824 103.008 24.768 103.104C23.808 103.2 22.848 103.488 21.888 103.872L21.024 104.256L21.12 103.392C21.12 102.336 21.024 101.28 20.736 100.32C20.448 99.36 19.968 98.4 19.2 97.44C18.144 96 17.184 95.04 16.032 93.888C15.168 93.024 14.208 92.064 13.056 90.72C11.712 89.184 10.464 87.168 9.792 84.96C9.216 83.04 9.024 81.024 9.504 79.008C9.888 76.896 10.752 74.592 12 72.672C12.576 71.712 13.152 70.944 13.92 70.176ZM50.688 84.288C50.688 84.576 51.072 83.52 51.168 83.808C51.168 84.288 51.264 85.152 51.36 85.344C51.456 86.496 51.456 87.552 51.552 88.608C51.552 89.664 51.456 90.72 51.36 92.064C51.264 93.792 51.168 95.328 50.592 96.96C50.016 98.592 48.96 100.128 47.136 101.568C45.696 102.72 44.16 103.2 42.432 103.104C40.8 103.104 38.976 102.528 37.056 101.76C34.944 100.8 33.216 100.32 31.68 99.84C31.104 99.744 30.432 99.552 29.952 99.36C29.088 99.072 28.32 98.976 27.456 99.072C26.592 99.072 25.632 99.264 24.768 99.648L24.096 99.84V99.072C24 98.208 23.904 97.248 23.616 96.384C23.328 95.616 22.944 94.848 22.464 94.272C22.08 93.792 21.696 93.216 21.312 92.736C20.448 91.488 19.392 90.048 17.76 88.416C16.224 86.88 15.072 85.344 14.496 83.808C13.824 82.272 13.728 80.64 14.208 79.008C14.976 76.704 16.032 75.168 17.376 74.112C18.624 72.96 20.064 72.288 21.6 71.52C22.848 70.944 23.904 70.56 24.864 70.176C25.824 69.792 26.784 69.504 27.936 69.216C28.704 69.024 30.24 68.832 31.008 68.64L30.432 69.6L31.392 69.696L31.2 69.792C30.432 69.888 28.896 70.08 28.224 70.272C27.072 70.656 26.208 70.944 25.248 71.232C24.288 71.616 23.328 72 22.08 72.576C20.64 73.248 19.296 73.92 18.048 74.88C16.896 75.936 15.936 77.28 15.36 79.296C14.88 80.736 14.976 82.08 15.552 83.424C16.128 84.864 17.088 86.208 18.528 87.552C20.256 89.376 21.312 90.816 22.272 92.064C22.656 92.544 22.944 93.024 23.328 93.504C23.904 94.272 24.384 95.136 24.672 96.096C24.96 96.768 25.056 97.536 25.152 98.304C25.92 98.112 26.688 98.016 27.456 97.92C28.416 97.92 29.28 98.016 30.24 98.304C30.816 98.496 31.392 98.688 31.968 98.784C33.6 99.264 35.328 99.744 37.536 100.704C39.36 101.472 40.992 101.952 42.432 102.048C43.968 102.048 45.216 101.664 46.368 100.704C48.096 99.36 48.96 98.016 49.536 96.576C50.016 95.136 50.208 93.6 50.304 91.968C50.4 90.624 50.4 89.568 50.4 88.608C50.4 87.552 50.304 86.592 50.208 85.44C50.208 85.248 50.016 83.712 49.92 83.616C49.92 83.424 49.92 83.328 49.92 83.136L50.4 83.04L50.688 84.288ZM59.136 83.52C59.04 83.712 59.424 83.712 59.424 83.904C59.136 85.152 59.04 86.4 58.944 87.552C58.848 88.896 58.944 90.336 59.04 91.968C59.136 93.6 59.328 95.136 59.808 96.576C60.288 98.016 61.248 99.36 62.88 100.704C64.128 101.664 65.376 102.048 66.816 102.048C68.352 101.952 69.984 101.472 71.808 100.704C74.016 99.744 75.744 99.264 77.28 98.784C77.856 98.688 78.432 98.496 79.104 98.304C79.968 98.016 80.928 97.92 81.888 97.92C82.656 98.016 83.424 98.112 84.192 98.304C84.288 97.536 84.384 96.768 84.672 96.096C84.96 95.136 85.344 94.272 86.016 93.504C86.304 93.024 86.688 92.544 87.072 92.064C88.032 90.816 89.088 89.376 90.816 87.552C92.16 86.208 93.216 84.864 93.792 83.424C94.368 82.08 94.464 80.736 93.984 79.296C93.312 77.28 92.352 75.936 91.2 74.88C90.048 73.92 88.704 73.248 87.264 72.576C86.016 72 85.056 71.616 84.096 71.232C83.136 70.944 82.176 70.656 81.024 70.272C80.448 70.08 77.952 69.696 77.28 69.6H77.088C76.992 69.408 78.528 69.6 78.72 69.216C78.72 69.12 78.432 68.736 78.432 68.64C79.488 68.832 80.832 69.12 81.312 69.216C82.464 69.504 83.424 69.792 84.48 70.176C85.44 70.56 86.4 70.944 87.744 71.52C89.184 72.288 90.72 72.96 91.968 74.112C93.312 75.168 94.368 76.704 95.04 79.008C95.616 80.64 95.52 82.272 94.848 83.808C94.176 85.344 93.12 86.88 91.584 88.416C89.952 90.048 88.896 91.488 87.936 92.736C87.552 93.216 87.264 93.792 86.88 94.272C86.304 94.848 85.92 95.616 85.728 96.384C85.44 97.248 85.248 98.208 85.248 99.072V99.84L84.48 99.648C83.616 99.264 82.752 99.072 81.792 99.072C81.024 98.976 80.16 99.072 79.392 99.36C78.816 99.552 78.24 99.744 77.568 99.84C76.128 100.32 74.4 100.8 72.288 101.76C70.368 102.528 68.544 103.104 66.912 103.104C65.184 103.2 63.648 102.72 62.208 101.568C60.384 100.128 59.328 98.592 58.752 96.96C58.176 95.328 58.08 93.792 57.888 92.064C57.792 90.432 57.792 88.896 57.888 87.456C57.888 86.496 57.984 85.536 58.176 84.48C58.272 84 58.752 83.616 58.848 83.136L59.136 83.52ZM73.056 39.36C73.152 39.072 73.248 38.88 73.344 38.688C73.44 38.496 73.248 38.4 73.344 38.208C73.536 37.728 73.824 37.152 74.112 36.672C74.688 35.616 75.264 34.752 75.84 33.888C76.416 33.024 77.088 32.16 77.952 31.104C79.104 29.856 80.064 28.608 81.504 27.648C82.944 26.688 84.672 26.016 87.072 25.92C88.8 25.824 90.336 26.304 91.68 27.36C93.024 28.416 94.176 29.856 95.232 31.68C96.384 33.696 97.536 35.04 98.496 36.288C98.976 36.768 99.36 37.248 99.648 37.728C100.224 38.4 100.8 38.976 101.472 39.456C102.24 39.936 103.104 40.224 103.968 40.512L104.736 40.704L104.256 41.376C103.776 42.144 103.296 43.008 103.104 43.872C102.816 44.64 102.72 45.408 102.72 46.272C102.72 46.848 102.72 47.52 102.816 48.096C102.816 49.728 102.816 51.456 103.2 53.76C103.488 55.872 103.584 57.696 103.104 59.328C102.72 60.96 101.952 62.4 100.512 63.456C98.592 64.896 96.864 65.472 95.136 65.664C93.408 65.76 91.872 65.472 90.24 65.184C88.8 64.896 87.744 64.704 86.784 64.416C85.728 64.128 84.864 63.744 83.712 63.36C83.04 63.072 82.272 62.784 81.6 62.4C81.408 62.304 81.216 62.304 81.024 62.112C80.928 61.92 80.544 61.44 80.256 61.248L80.928 60.96C81.312 61.152 81.216 60.96 81.696 61.152C81.792 61.248 81.984 61.344 82.176 61.44C82.752 61.728 83.424 62.112 84.096 62.304C85.152 62.688 86.112 63.072 87.072 63.264C88.032 63.552 89.088 63.84 90.432 64.032C91.968 64.32 93.504 64.608 95.04 64.512C96.576 64.416 98.112 63.84 99.84 62.592C100.992 61.632 101.76 60.48 102.048 59.04C102.432 57.6 102.336 55.872 102.048 53.952C101.664 51.552 101.664 49.728 101.664 48.192C101.664 47.52 101.664 46.944 101.568 46.272C101.568 45.312 101.664 44.352 101.952 43.488C102.24 42.72 102.528 42.048 102.912 41.376C102.24 41.088 101.472 40.8 100.896 40.32C100.032 39.84 99.36 39.168 98.784 38.4C98.4 37.92 98.016 37.44 97.632 36.96C96.672 35.712 95.52 34.368 94.272 32.256C93.312 30.528 92.256 29.184 91.008 28.224C89.856 27.36 88.608 26.976 87.072 26.976C84.96 27.072 83.424 27.744 82.176 28.608C80.832 29.472 79.872 30.624 78.816 31.872C77.952 32.928 77.28 33.696 76.8 34.56C76.128 35.424 75.648 36.192 75.072 37.248C74.688 37.824 74.4 38.496 74.112 39.168C74.016 39.456 73.248 39.552 73.152 39.744L73.056 39.36Z" fill="#004D71"/>
<path d="M85.3441 21.4079C86.1121 18.4319 86.4961 16.2239 86.2081 13.4399C83.9041 14.1119 81.6961 15.0719 79.2961 16.7999L78.9121 15.6479C81.3121 14.1119 83.8081 12.8639 86.5921 12.1919L87.1681 12.0959L87.2641 12.6719C87.6481 15.5519 87.4561 18.3359 86.4961 21.3119L85.3441 21.4079Z" fill="#004D71"/>
<path d="M98.4961 75.744C101.472 75.648 103.68 75.36 106.368 74.208C105.024 72.192 103.392 70.368 100.992 68.64L101.952 67.968C104.256 69.696 106.08 71.712 107.616 74.208L107.904 74.688L107.424 74.976C104.736 76.128 102.048 76.896 98.8801 76.8L98.4961 75.744Z" fill="#004D71"/>
<path d="M50.7839 104.544C51.8399 107.424 52.7999 109.44 54.6239 111.648C56.1599 109.824 57.5999 107.328 58.4639 104.544L59.4239 105.312C58.7519 107.424 56.9279 110.688 55.0079 112.896L54.6239 113.376L54.1439 112.896C52.3199 110.688 50.7839 108.288 49.9199 105.312L50.7839 104.544Z" fill="#004D71"/>
<path d="M8.73575 68.64C6.33575 70.368 4.60775 71.808 2.97575 74.112C5.18375 75.168 7.58375 75.744 10.4638 76.032L9.98375 77.088C7.19975 76.8 4.51175 76.128 1.91975 74.88L1.34375 74.592L1.72775 74.016C3.26375 71.616 5.18375 69.6 7.87175 67.968L8.73575 68.64Z" fill="#004D71"/>
<path d="M30.0483 17.4719C27.6483 15.6479 25.7283 14.3999 23.0403 13.5359C22.7523 15.9359 22.8483 18.4319 23.4243 21.3119L22.3683 21.2159C21.6963 18.4319 21.6003 15.5519 22.0803 12.7679L22.1763 12.0959L22.7523 12.2879C25.5363 13.0559 28.0323 14.3039 30.3363 16.4159L30.0483 17.4719Z" fill="#004D71"/>
<path fill-rule="evenodd" clip-rule="evenodd" d="M54.624 49.3441C59.136 49.3441 62.88 53.0881 62.88 57.6001C62.88 62.1121 59.136 65.7601 54.624 65.7601C50.112 65.7601 46.464 62.1121 46.464 57.6001C46.464 53.0881 50.112 49.3441 54.624 49.3441ZM54.624 48.7681C59.52 48.7681 63.552 52.7041 63.552 57.6001C63.552 62.4961 59.52 66.4321 54.624 66.4321C49.824 66.4321 45.792 62.4961 45.792 57.6001C45.792 52.7041 49.824 48.7681 54.624 48.7681Z" fill="#004D71"/>
<path d="M39.0715 76.992C38.3035 77.76 37.4395 78.528 36.6715 79.296C34.7515 81.024 32.9275 82.752 31.4875 84.768C30.4315 86.4 29.8555 88.32 29.3755 90.144C29.1835 90.816 28.9915 91.488 28.7035 92.16C29.2795 91.776 29.9515 91.488 30.5275 91.104C32.2555 90.048 33.8875 89.088 35.2315 87.648C36.8635 85.824 38.1115 83.616 39.3595 81.408C39.9355 80.448 40.5115 79.488 41.0875 78.528C40.4155 78.048 39.7435 77.568 39.0715 76.992ZM38.6875 83.808C38.3035 84.48 38.0155 85.152 37.8235 85.92C37.7275 86.4 37.6315 86.88 37.5355 87.456C38.6875 86.592 39.6475 85.536 40.5115 84.288C41.3755 82.848 42.2395 81.312 43.0075 79.584C42.5275 79.392 42.0475 79.104 41.6635 78.816C40.9915 79.776 40.5115 80.736 39.9355 81.696C39.5515 82.368 39.1675 83.136 38.6875 83.808ZM43.5835 79.872C43.2955 80.448 43.0075 80.928 42.7195 81.504C42.4315 82.176 42.2395 82.944 42.1435 83.616C42.0475 84.288 41.9515 84.864 41.9515 85.44C42.5275 84.864 43.0075 84.192 43.2955 83.424C43.7755 82.464 44.1595 81.216 44.3515 80.256C44.0635 80.16 43.8715 80.064 43.5835 79.872ZM41.5675 83.712C41.3755 84 41.1835 84.288 40.9915 84.576C39.9355 86.112 38.7835 87.36 37.3435 88.224L36.9595 88.512V87.936C36.9595 87.36 37.0555 86.784 37.1515 86.208C36.6715 86.88 36.1915 87.456 35.6155 88.032C34.2715 89.568 32.5435 90.624 30.8155 91.584C29.5675 92.352 28.5115 93.024 27.3595 93.984C28.0315 92.544 28.3195 91.488 28.7995 90.048C29.3755 88.032 29.8555 86.112 31.0075 84.48C31.3915 83.808 31.8715 83.232 32.3515 82.656C31.8715 82.944 31.3915 83.136 30.8155 83.232L30.3355 83.424L30.5275 82.848C30.9115 81.6 31.5835 80.448 32.4475 79.296C32.4475 79.296 32.3515 79.296 32.3515 79.392C31.8715 79.488 31.4875 79.584 31.0075 79.584L30.3355 79.68L30.7195 79.104C31.1995 78.432 31.6795 77.856 32.2555 77.28C31.9675 77.376 31.6795 77.376 31.3915 77.376L30.7195 77.472L31.1035 76.992C31.5835 76.224 32.1595 75.456 32.8315 74.784C32.3515 74.976 31.8715 75.072 31.3915 75.168L30.8155 75.264L31.1035 74.688C31.4875 74.112 31.8715 73.632 32.3515 73.152C31.8715 73.248 31.4875 73.344 31.0075 73.344H30.5275L30.7195 72.96C31.0075 72.384 31.2955 72 31.7755 71.52C31.3915 71.616 31.1035 71.616 30.8155 71.616H30.4315L30.6235 71.232C30.8155 70.752 31.1995 70.272 31.5835 69.888C31.1995 69.984 30.7195 69.984 30.3355 69.984L29.9515 69.888L30.0475 69.504C30.2395 69.12 30.5275 68.64 30.9115 68.352C30.9115 68.256 30.9115 68.256 31.0075 68.256C30.6235 68.256 30.2395 68.256 29.9515 68.256L29.4715 68.16L29.6635 67.776C29.8555 67.488 30.1435 67.104 30.4315 66.912C30.0475 66.816 29.7595 66.72 29.3755 66.528L29.0875 66.432L29.2795 66.144C29.4715 65.856 29.7595 65.568 30.0475 65.28C29.6635 65.28 29.2795 65.088 28.8955 64.992L28.5115 64.8L28.7995 64.512C28.9915 64.32 29.1835 64.128 29.3755 63.936C29.0875 63.84 28.7035 63.744 28.4155 63.648L28.0315 63.456L28.3195 63.168C28.5115 62.88 28.7995 62.688 29.0875 62.496C28.7035 62.496 28.3195 62.4 28.0315 62.304L27.4555 62.112L27.8395 61.728C28.2235 61.44 28.6075 61.152 28.9915 60.96H29.0875C28.9915 60.96 28.8955 60.96 28.8955 60.864C28.4155 60.864 27.9355 60.672 27.3595 60.576L26.7835 60.384L27.3595 60C27.7435 59.808 28.1275 59.52 28.5115 59.328C28.5115 59.328 28.4155 59.328 28.3195 59.328C27.7435 59.232 27.1675 59.04 26.4955 58.848L25.9195 58.56L26.4955 58.272C26.8795 58.08 27.3595 57.888 27.8395 57.696C27.0715 57.6 26.3035 57.408 25.5355 57.12L25.0555 56.928L25.4395 56.544C25.7275 56.352 26.0155 56.256 26.3035 56.064C25.6315 55.968 24.9595 55.776 24.2875 55.392L23.7115 55.104L24.3835 54.816C24.7675 54.72 25.2475 54.528 25.7275 54.432C24.8635 54.336 23.9995 54.144 23.0395 53.664L22.5595 53.472L23.0395 53.184C23.2315 52.992 23.5195 52.896 23.9035 52.8C22.4635 52.32 21.3115 51.744 20.2555 50.976L19.7755 50.592L20.3515 50.4C20.9275 50.208 21.5035 50.112 22.0795 50.016C21.3115 49.824 20.5435 49.536 19.7755 49.248C17.9515 48.48 16.3195 47.232 14.7835 45.984C13.7275 45.12 12.6715 44.352 11.5195 43.68C12.9595 43.68 14.1115 43.584 15.5515 43.488C17.5675 43.392 19.5835 43.2 21.5035 43.68C22.2715 43.872 22.9435 44.064 23.7115 44.352C23.3275 43.968 22.9435 43.584 22.6555 43.104L22.2715 42.624H22.8475C24.3835 42.528 26.0155 42.912 27.6475 43.488L27.5515 43.392C27.2635 43.008 26.9755 42.624 26.7835 42.24L26.5915 41.664L27.1675 41.856C28.1275 42.048 29.0875 42.336 29.9515 42.72C29.5675 42.24 29.3755 41.856 29.1835 41.376L28.8955 40.8L29.5675 40.992C30.5275 41.28 31.4875 41.76 32.3515 42.336C31.9675 41.76 31.5835 41.184 31.2955 40.608L31.1035 40.032L31.6795 40.128C32.2555 40.32 32.8315 40.608 33.4075 40.896C33.2155 40.608 33.0235 40.224 32.8315 39.84L32.6395 39.36L33.2155 39.456C33.7915 39.648 34.3675 39.84 34.8475 40.128C34.6555 39.744 34.5595 39.456 34.4635 38.976L34.2715 38.496L34.7515 38.688C35.2315 38.784 35.5195 38.88 35.9035 39.168C35.8075 38.88 35.7115 38.592 35.6155 38.304L35.5195 37.824L35.9995 37.92C36.3835 38.016 36.6715 38.112 37.0555 38.304C36.8635 38.016 36.7675 37.728 36.6715 37.344L36.5755 36.864L37.0555 37.056C37.5355 37.152 38.0155 37.344 38.3035 37.632C38.2075 37.248 38.2075 36.768 38.1115 36.384V35.712L38.5915 36.096C38.7835 36.192 38.9755 36.384 39.0715 36.48C38.9755 36.192 38.9755 35.808 39.0715 35.424L39.1675 35.136L39.4555 35.232C39.7435 35.328 40.0315 35.424 40.2235 35.616C40.1275 35.424 40.1275 35.232 40.1275 35.04V34.56L40.5115 34.752C40.7995 34.848 41.0875 34.944 41.3755 35.136C41.2795 34.848 41.2795 34.56 41.1835 34.176V33.696L41.6635 33.888C41.8555 33.984 42.0475 34.08 42.2395 34.272C42.2395 33.888 42.1435 33.6 42.2395 33.216V32.736L42.6235 32.928C43.0075 33.12 43.2955 33.408 43.5835 33.6C43.4875 33.216 43.3915 32.736 43.3915 32.256V31.68L43.8715 31.968C44.2555 32.256 44.5435 32.544 44.7355 32.832C44.6395 32.256 44.5435 31.68 44.6395 31.008V30.528L45.0235 30.816C45.5995 31.104 45.9835 31.488 46.3675 31.968V31.872C46.1755 31.008 46.1755 30.048 46.1755 29.088L46.2715 28.608L46.6555 28.896C47.1355 29.28 47.4235 29.568 47.8075 30.048C47.7115 29.568 47.7115 29.184 47.8075 28.704C47.8075 27.936 47.9035 27.072 48.1915 26.304L48.2875 25.824L48.6715 26.208C49.0555 26.592 49.4395 27.072 49.7275 27.648C49.6315 25.92 49.7275 24.192 50.3035 22.752L50.4955 22.176L50.8795 22.656C51.1675 23.04 51.4555 23.52 51.6475 24C51.6475 23.232 51.6475 22.56 51.7435 21.792C51.8395 19.776 52.6075 17.856 53.3755 16.032C53.8555 14.88 54.2395 13.728 54.6235 12.48C55.1035 13.632 55.4875 14.88 55.9675 16.032C56.6395 17.856 57.4075 19.776 57.5995 21.792C57.5995 22.56 57.5995 23.424 57.5995 24.192C57.8875 23.616 58.1755 23.136 58.5595 22.656L58.8475 22.176L59.0395 22.752C59.5195 24.096 59.7115 25.536 59.7115 27.072C59.9035 26.688 60.0955 26.304 60.3835 26.112L60.7675 25.728L60.8635 26.304C60.9595 27.168 61.0555 28.032 61.0555 28.8C61.0555 29.184 61.0555 29.472 61.0555 29.76C61.3435 29.184 61.7275 28.704 62.2075 28.32L62.6875 27.84V28.512C62.6875 29.28 62.5915 30.048 62.4955 30.816C62.7835 30.528 62.9755 30.144 63.3595 29.856L63.8395 29.376V30.048C63.9355 30.816 63.8395 31.584 63.7435 32.352C63.7435 32.544 63.7435 32.64 63.6475 32.832C64.0315 32.352 64.4155 31.872 64.8955 31.488L65.3755 31.008V31.68C65.3755 32.16 65.3755 32.544 65.2795 33.024C65.4715 32.736 65.7595 32.544 66.0475 32.352L66.5275 31.968V32.64C66.4315 33.216 66.4315 33.696 66.3355 34.272C66.6235 33.888 67.0075 33.6 67.3915 33.408L67.7755 33.216V33.696C67.8715 34.08 67.7755 34.464 67.6795 34.848C67.9675 34.656 68.1595 34.56 68.4475 34.368L68.8315 34.272V34.656C68.9275 35.04 68.8315 35.424 68.8315 35.712C69.0235 35.52 69.3115 35.424 69.5035 35.232L69.8875 35.04L69.9835 35.52C70.0795 36 69.9835 36.48 69.8875 36.96L69.9835 36.864C70.2715 36.672 70.6555 36.384 71.0395 36.288L71.4235 36.096V36.576C71.3275 37.056 71.2315 37.44 71.0395 37.824C71.1355 37.824 71.1355 37.824 71.1355 37.728C71.5195 37.536 71.9035 37.344 72.2875 37.152L72.7675 36.96V37.536C72.6715 37.824 72.5755 38.112 72.4795 38.4C72.7675 38.208 73.0555 38.112 73.4395 38.016L73.9195 37.92L73.8235 38.4C73.7275 38.688 73.6315 38.88 73.5355 39.168C73.9195 38.976 74.3035 38.88 74.6875 38.784L75.1675 38.688L75.0715 39.168C74.9755 39.552 74.8795 39.84 74.6875 40.128C75.1675 39.84 75.6475 39.648 76.1275 39.456L76.6075 39.264L76.5115 39.744C76.4155 40.224 76.3195 40.704 76.0315 41.088C76.7035 40.704 77.3755 40.416 77.9515 40.224L78.5275 40.128L78.3355 40.608C78.1435 41.184 77.8555 41.664 77.5675 42.144C78.3355 41.664 79.1035 41.376 79.9675 41.088L80.5435 40.896L80.2555 41.568C80.0635 41.952 79.7755 42.432 79.4875 42.816C79.6795 42.72 79.8715 42.624 80.0635 42.528C80.7355 42.24 81.5035 42.048 82.2715 41.856L82.7515 41.76L82.5595 42.24C82.4635 42.72 82.2715 43.104 81.9835 43.488C83.4235 43.008 84.8635 42.72 86.3995 42.816H86.8795L86.5915 43.296C86.3035 43.68 85.9195 44.064 85.5355 44.448C86.2075 44.256 86.9755 43.968 87.6475 43.872C89.6635 43.392 91.6795 43.488 93.6955 43.68C94.9435 43.776 96.0955 43.776 97.3435 43.872C96.4795 44.64 95.4235 45.408 94.4635 46.176C92.8315 47.424 91.2955 48.672 89.3755 49.44C88.7035 49.728 87.9355 50.016 87.1675 50.208C87.7435 50.208 88.3195 50.4 88.8955 50.592L89.3755 50.784L88.9915 51.072C87.7435 52.128 86.2075 52.704 84.5755 53.184C84.6715 53.184 84.8635 53.184 84.9595 53.28C85.5355 53.376 86.0155 53.568 86.3995 53.664L86.9755 53.952L86.3035 54.24C85.3435 54.624 84.2875 54.912 83.1355 55.104C83.8075 55.2 84.4795 55.392 85.0555 55.68L85.6315 56.064L84.9595 56.256C83.9995 56.544 83.2315 56.736 82.4635 56.832C82.9435 56.928 83.4235 57.216 83.9035 57.504L84.3835 57.888L83.8075 57.984C83.0395 58.176 82.3675 58.368 81.5995 58.368C82.0795 58.56 82.5595 58.752 82.9435 59.04L83.4235 59.424L82.8475 59.616C82.2715 59.712 81.6955 59.808 81.1195 59.808C81.5995 60.096 81.9835 60.384 82.2715 60.768L82.5595 61.056L82.1755 61.248C81.6955 61.344 81.3115 61.344 80.9275 61.344C81.2155 61.536 81.5035 61.824 81.5995 62.016L81.6955 62.304L81.4075 62.496C81.1195 62.592 80.7355 62.592 80.4475 62.688C80.7355 62.88 81.0235 63.168 81.3115 63.456L81.5035 63.744L81.1195 63.936C80.7355 64.032 80.3515 64.128 79.8715 64.128C80.1595 64.32 80.4475 64.608 80.6395 64.896L80.8315 65.184L80.4475 65.28C80.0635 65.472 79.6795 65.472 79.2955 65.568C79.6795 65.856 80.0635 66.144 80.3515 66.528L80.5435 66.912L80.1595 67.008C79.6795 67.104 79.1995 67.104 78.7195 67.104C79.1035 67.392 79.3915 67.68 79.5835 68.064L79.6795 68.448H79.2955C79.0075 68.544 78.8155 68.544 78.5275 68.544C78.7195 68.736 78.9115 68.928 79.1035 69.12L79.3915 69.504L78.9115 69.6C78.5275 69.696 78.1435 69.792 77.6635 69.696H77.7595C78.1435 70.08 78.4315 70.464 78.6235 70.944L78.9115 71.328H78.4315C78.0475 71.328 77.7595 71.424 77.3755 71.328C77.8555 71.712 78.2395 72 78.5275 72.384L78.9115 72.864H78.3355C77.9515 72.864 77.4715 72.864 77.0875 72.768C77.5675 73.152 77.9515 73.632 78.3355 74.112L78.6235 74.592H78.0475C77.5675 74.592 77.0875 74.496 76.5115 74.4C77.1835 74.976 77.7595 75.648 78.2395 76.32L78.6235 76.896L77.9515 76.8C77.3755 76.704 76.8955 76.512 76.4155 76.416C76.6075 76.608 76.7995 76.8 76.8955 76.992C77.5675 77.856 78.0475 78.72 78.6235 79.488C77.5675 79.296 76.7035 79.008 75.7435 78.624C76.8955 79.968 78.1435 81.696 79.0075 83.328C78.1435 83.136 77.6635 82.848 76.8955 82.464C77.4715 83.136 77.9515 83.808 78.4315 84.48C79.5835 86.112 80.1595 88.032 80.6395 90.048C81.1195 91.488 81.5035 92.64 82.0795 93.984C80.9275 93.024 79.8715 92.352 78.6235 91.584C76.8955 90.624 75.1675 89.568 73.8235 88.032C73.2475 87.456 72.7675 86.88 72.2875 86.208C72.4795 86.784 72.4795 87.36 72.5755 87.936V88.512L72.0955 88.224C70.6555 87.36 69.5035 86.112 68.5435 84.672C68.5435 84.768 68.5435 84.864 68.5435 84.96C68.5435 85.44 68.4475 85.92 68.3515 86.304L68.1595 86.88L67.7755 86.496C67.0075 85.536 66.4315 84.48 65.8555 83.424C65.7595 83.328 65.7595 83.328 65.7595 83.328C65.8555 84.288 65.9515 85.344 65.6635 86.4C64.8955 85.632 64.5115 84.864 64.0315 83.904C64.0315 84.48 64.0315 84.96 63.8395 85.44L63.7435 86.112L63.3595 85.536C62.8795 84.96 62.4955 84.288 62.2075 83.52C62.1115 84 62.0155 84.48 61.8235 84.96L61.6315 85.44L61.3435 84.96C60.9595 84.48 60.6715 83.904 60.4795 83.328C60.3835 83.808 60.1915 84.288 59.9995 84.672L59.8075 85.152L59.5195 84.768C59.3275 84.48 59.0395 84.096 58.9435 83.712C58.8475 84 58.6555 84.384 58.5595 84.672L58.2715 85.152L57.9835 84.672C57.8875 84.384 57.6955 84.096 57.5995 83.808C57.5035 84.096 57.4075 84.288 57.3115 84.576L57.0235 84.96L56.7355 84.576C56.6395 84.384 56.4475 84.096 56.2555 83.808C56.1595 84.192 56.0635 84.48 55.8715 84.768L55.5835 85.152L55.3915 84.768C55.1995 84.576 55.0075 84.288 54.8155 83.808C54.7195 83.712 54.7195 83.52 54.6235 83.424C54.5275 83.904 54.2395 84.288 53.9515 84.576L53.7595 84.768L53.5675 84.576C53.2795 84.192 53.1835 83.904 52.9915 83.52C52.7995 84 52.6075 84.384 52.4155 84.768L52.0315 85.248L51.8395 84.768C51.7435 84.384 51.6475 84.096 51.5515 83.712C51.3595 84 51.1675 84.384 50.8795 84.672L50.4955 84.96L50.3995 84.576C50.2075 84.288 50.2075 83.904 50.1115 83.616C49.8235 84.192 49.5355 84.672 49.1515 84.96L48.7675 85.152L48.6715 84.768C48.5755 84.384 48.4795 84 48.4795 83.712C48.1915 84.288 47.9035 84.768 47.5195 85.248L47.0395 85.728L46.9435 85.152C46.8475 84.576 46.8475 84.096 46.8475 83.616C46.8475 83.712 46.7515 83.712 46.7515 83.808C46.3675 84.576 45.8875 85.152 45.4075 85.536L44.9275 85.92V85.344C44.9275 84.96 44.9275 84.576 45.0235 84.192C44.5435 85.056 44.1595 85.632 43.4875 86.304C43.3915 85.728 43.2955 85.248 43.2955 84.672C42.9115 85.248 42.4315 85.824 41.8555 86.4L41.3755 86.88V86.208C41.3755 85.44 41.3755 84.576 41.5675 83.712ZM44.9275 80.544C44.7355 81.6 44.3515 82.464 44.0635 83.328C43.9675 83.712 43.9675 84.096 43.9675 84.48C43.9675 84.576 43.9675 84.672 43.9675 84.864C44.2555 84.384 44.5435 83.808 44.7355 83.328C45.1195 82.56 45.4075 81.792 45.6955 80.928L45.7915 80.832C45.5035 80.736 45.2155 80.64 44.9275 80.544ZM67.7755 83.424C67.1035 82.272 66.4315 81.12 65.8555 79.872C65.5675 79.968 65.3755 80.064 65.0875 80.16C65.4715 81.216 65.8555 82.176 66.3355 83.136C66.8155 84 67.2955 84.768 67.8715 85.536C67.8715 85.344 67.8715 85.152 67.8715 84.96C67.9675 84.48 67.8715 84 67.7755 83.424ZM66.4315 79.584C67.1995 81.216 68.0635 82.848 69.0235 84.288C69.7915 85.536 70.7515 86.592 71.9035 87.456C71.9035 86.88 71.7115 86.4 71.6155 85.92C71.4235 85.152 71.1355 84.48 70.7515 83.808C70.3675 83.136 69.9835 82.368 69.5035 81.696C68.9275 80.736 68.4475 79.68 67.7755 78.72C67.2955 79.008 66.9115 79.296 66.4315 79.584ZM46.3675 81.024L46.2715 81.12C46.0795 81.888 45.8875 82.56 45.6955 83.232C45.5995 83.712 45.5995 84.192 45.5995 84.576C45.7915 84.288 45.9835 84 46.1755 83.52C46.4635 82.944 46.7515 82.176 47.0395 81.312C46.7515 81.216 46.5595 81.12 46.3675 81.024ZM47.6155 81.504C47.5195 82.08 47.4235 82.56 47.4235 83.04C47.4235 83.52 47.4235 83.904 47.4235 84.288C47.9035 83.616 48.1915 82.752 48.4795 81.792C48.4795 81.696 48.4795 81.792 48.4795 81.696C48.1915 81.6 47.9035 81.6 47.6155 81.504ZM49.0555 81.888C48.9595 82.272 48.9595 82.656 48.9595 83.136C49.0555 83.424 49.0555 83.808 49.1515 84.096C49.2475 83.904 49.4395 83.712 49.5355 83.424C49.7275 83.04 49.9195 82.56 50.0155 82.08C49.7275 81.984 49.3435 81.888 49.0555 81.888ZM50.6875 82.176C50.5915 82.56 50.5915 82.848 50.6875 83.136C50.6875 83.424 50.6875 83.616 50.7835 83.808C50.8795 83.616 51.0715 83.424 51.1675 83.136C51.2635 82.848 51.3595 82.56 51.4555 82.272C51.1675 82.272 50.8795 82.176 50.6875 82.176ZM52.0315 82.368C52.0315 82.656 52.0315 83.04 52.1275 83.328C52.1275 83.52 52.1275 83.712 52.2235 83.904C52.3195 83.712 52.4155 83.52 52.5115 83.328C52.6075 83.04 52.7035 82.752 52.7995 82.464C52.5115 82.368 52.3195 82.368 52.0315 82.368ZM53.4715 82.464C53.4715 82.752 53.5675 83.04 53.5675 83.232C53.6635 83.424 53.6635 83.616 53.7595 83.808C53.9515 83.712 53.9515 83.424 54.0475 83.232C54.1435 83.04 54.2395 82.752 54.2395 82.464C54.0475 82.464 53.7595 82.464 53.4715 82.464ZM55.0075 82.464C55.1035 82.944 55.1995 83.328 55.3915 83.616C55.3915 83.808 55.4875 83.904 55.5835 84.096C55.7755 83.616 55.8715 83.04 55.9675 82.464C55.6795 82.464 55.2955 82.464 55.0075 82.464ZM56.5435 82.368C56.6395 82.848 56.6395 83.136 56.7355 83.424C56.8315 83.52 56.9275 83.712 56.9275 83.808C57.0235 83.616 57.1195 83.424 57.1195 83.136C57.2155 82.848 57.2155 82.656 57.2155 82.368C57.0235 82.368 56.8315 82.368 56.5435 82.368ZM57.8875 82.272C57.8875 82.656 57.9835 83.04 58.0795 83.328C58.1755 83.52 58.1755 83.616 58.2715 83.808C58.3675 83.616 58.3675 83.328 58.4635 83.136C58.5595 82.848 58.5595 82.56 58.6555 82.272C58.6555 82.176 58.6555 82.176 58.6555 82.176C58.3675 82.176 58.0795 82.272 57.8875 82.272ZM59.2315 82.08C59.2315 82.08 59.2315 82.176 59.2315 82.272C59.2315 82.56 59.2315 82.944 59.3275 83.232C59.4235 83.424 59.5195 83.712 59.7115 84C59.8075 83.616 59.9035 83.328 59.9035 82.944C59.9995 82.656 60.0955 82.272 60.0955 81.888C59.8075 81.984 59.5195 81.984 59.2315 82.08ZM60.7675 81.696C60.7675 82.272 60.8635 82.656 61.0555 83.136C61.1515 83.52 61.2475 83.808 61.4395 84.096C61.5355 83.712 61.6315 83.328 61.6315 82.848C61.7275 82.464 61.7275 81.984 61.6315 81.6V81.504C61.3435 81.6 61.0555 81.696 60.7675 81.696ZM62.2075 81.312C62.2075 81.408 62.2075 81.408 62.2075 81.504C62.3035 82.08 62.4955 82.656 62.6875 83.232C62.8795 83.712 63.1675 84.192 63.4555 84.576C63.4555 84.192 63.4555 83.712 63.4555 83.232C63.3595 82.56 63.2635 81.888 63.0715 81.216C63.0715 81.12 63.0715 81.12 63.0715 81.024C62.7835 81.12 62.4955 81.216 62.2075 81.312ZM63.6475 80.832C63.6475 80.928 63.6475 80.928 63.6475 81.024C63.8395 81.888 64.1275 82.656 64.4155 83.328C64.7035 83.904 64.9915 84.384 65.2795 84.864C65.2795 84.192 65.1835 83.52 65.0875 82.848C64.9915 82.08 64.7995 81.216 64.5115 80.448C64.2235 80.544 63.9355 80.736 63.6475 80.832ZM75.6475 81.216C76.1275 81.408 76.5115 81.6 76.7995 81.792C77.0875 81.888 77.2795 81.984 77.5675 82.176C76.6075 80.64 75.5515 79.2 74.3035 77.952C73.3435 77.376 72.3835 76.704 71.5195 75.936C71.3275 76.128 71.0395 76.32 70.7515 76.512C71.6155 77.376 72.3835 78.048 73.2475 78.816C74.1115 79.584 74.8795 80.352 75.6475 81.216ZM68.2555 78.432C68.9275 79.392 69.5035 80.448 70.0795 81.408C71.3275 83.616 72.5755 85.824 74.2075 87.648C75.5515 89.088 77.2795 90.048 78.9115 91.104C79.4875 91.488 80.1595 91.776 80.7355 92.16C80.5435 91.488 80.3515 90.816 80.1595 90.144C79.5835 88.32 79.0075 86.4 77.9515 84.768C76.5115 82.752 74.6875 81.024 72.8635 79.296C71.9995 78.528 71.1355 77.76 70.3675 76.896C69.6955 77.472 69.0235 77.952 68.2555 78.432ZM71.9995 75.456C72.8635 76.224 73.8235 76.896 74.7835 77.472C75.5515 77.856 76.4155 78.24 77.2795 78.528C76.9915 78.144 76.7995 77.76 76.5115 77.376C76.0315 76.896 75.6475 76.32 75.1675 75.936L75.0715 75.84C74.3035 75.552 73.5355 75.072 72.8635 74.592C72.6715 74.784 72.4795 74.976 72.2875 75.168C72.1915 75.264 72.0955 75.36 71.9995 75.456ZM73.2475 74.208C73.9195 74.592 74.5915 74.976 75.3595 75.36C75.9355 75.648 76.6075 75.84 77.2795 76.032C76.8955 75.552 76.5115 75.072 76.0315 74.688C75.4555 74.112 74.7835 73.632 74.1115 73.152C73.8235 73.536 73.5355 73.824 73.2475 74.208ZM74.4955 72.672C74.9755 73.056 75.5515 73.344 76.0315 73.536C76.5115 73.728 76.9915 73.92 77.4715 73.92C77.0875 73.632 76.7995 73.248 76.4155 72.96C76.0315 72.672 75.4555 72.288 74.9755 72C74.7835 72.192 74.5915 72.48 74.4955 72.672ZM75.2635 71.52C75.7435 71.712 76.2235 71.904 76.6075 72C76.9915 72.096 77.2795 72.192 77.5675 72.192C77.3755 72.096 77.1835 71.904 76.8955 71.712C76.5115 71.52 76.1275 71.232 75.6475 71.04C75.5515 71.232 75.4555 71.328 75.2635 71.52ZM75.9355 70.464C76.3195 70.56 76.6075 70.656 76.8955 70.752C77.2795 70.752 77.5675 70.752 77.8555 70.752C77.7595 70.56 77.5675 70.368 77.2795 70.176C77.0875 69.984 76.7995 69.696 76.5115 69.504C76.3195 69.888 76.1275 70.176 75.9355 70.464ZM76.7995 68.928C77.0875 69.024 77.3755 69.024 77.6635 69.12C77.8555 69.12 78.0475 69.12 78.2395 69.12C78.1435 69.024 77.9515 68.928 77.8555 68.832C77.5675 68.64 77.3755 68.544 77.0875 68.448C76.9915 68.544 76.8955 68.736 76.7995 68.928ZM77.3755 67.776C77.6635 67.872 77.8555 67.872 78.1435 67.872C78.3355 67.968 78.5275 67.968 78.7195 67.968C78.6235 67.776 78.5275 67.68 78.3355 67.584C78.1435 67.392 77.9515 67.296 77.6635 67.104C77.5675 67.392 77.4715 67.584 77.3755 67.776ZM77.9515 66.432C78.1435 66.528 78.4315 66.528 78.7195 66.528C79.0075 66.528 79.1995 66.528 79.4875 66.528C79.3915 66.336 79.1995 66.144 79.0075 66.048C78.7195 65.856 78.5275 65.76 78.2395 65.568C78.1435 65.856 78.0475 66.144 77.9515 66.432ZM78.4315 64.896C78.7195 64.992 79.0075 64.992 79.1995 64.992C79.3915 64.896 79.6795 64.896 79.8715 64.896C79.6795 64.704 79.5835 64.608 79.3915 64.512C79.1995 64.416 78.9115 64.32 78.7195 64.128C78.6235 64.416 78.5275 64.704 78.4315 64.896ZM78.8155 63.456C79.1995 63.552 79.4875 63.552 79.7755 63.552C80.0635 63.552 80.2555 63.552 80.5435 63.456C80.3515 63.36 80.1595 63.168 79.8715 63.072C79.6795 62.976 79.3915 62.784 79.0075 62.688C79.0075 62.976 78.9115 63.264 78.8155 63.456ZM79.1995 62.016C79.4875 62.112 79.7755 62.112 80.0635 62.112C80.3515 62.112 80.5435 62.016 80.8315 62.016C80.6395 61.92 80.5435 61.824 80.3515 61.728C80.0635 61.536 79.6795 61.44 79.2955 61.344C79.1995 61.536 79.1995 61.824 79.1995 62.016ZM79.3915 60.672C79.7755 60.768 80.1595 60.768 80.5435 60.768C80.8315 60.768 81.1195 60.768 81.5035 60.768C81.2155 60.576 80.9275 60.384 80.6395 60.288C80.2555 60.096 79.8715 60 79.4875 59.904C79.3915 60.192 79.3915 60.384 79.3915 60.672ZM79.4875 59.232C79.9675 59.232 80.4475 59.328 80.9275 59.232C81.2155 59.232 81.5995 59.232 81.9835 59.136C81.6955 59.04 81.3115 58.944 81.0235 58.848C80.5435 58.656 80.0635 58.56 79.5835 58.464C79.4875 58.752 79.4875 59.04 79.4875 59.232ZM79.5835 57.888C80.1595 57.888 80.7355 57.888 81.4075 57.792C81.8875 57.792 82.3675 57.696 82.9435 57.6C81.8875 57.12 80.7355 57.024 79.5835 57.024C79.5835 57.216 79.5835 57.408 79.5835 57.6C79.5835 57.696 79.5835 57.792 79.5835 57.888ZM79.4875 56.448L79.6795 56.352C81.0235 56.352 82.2715 56.352 83.9995 55.872C83.5195 55.68 82.8475 55.584 82.2715 55.584C81.4075 55.488 80.4475 55.488 79.4875 55.488C79.4875 55.776 79.4875 56.064 79.4875 56.448ZM79.3915 54.816C79.6795 54.816 79.8715 54.816 80.0635 54.816C81.8875 54.624 83.7115 54.528 85.3435 53.952C85.1515 53.952 85.0555 53.856 84.8635 53.856C84.3835 53.664 83.7115 53.568 83.1355 53.472C81.8875 53.664 80.6395 53.856 79.2955 53.952C79.2955 54.24 79.3915 54.528 79.3915 54.816ZM79.1995 53.376C80.9275 53.184 82.6555 52.992 84.1915 52.608C85.6315 52.224 86.9755 51.744 88.1275 50.976C87.6475 50.88 87.1675 50.784 86.5915 50.688C85.9195 50.688 85.1515 50.688 84.3835 50.784C83.5195 50.976 82.7515 51.072 81.9835 51.168C80.9275 51.36 79.8715 51.552 78.9115 51.744C79.0075 52.224 79.1035 52.8 79.1995 53.376ZM77.6635 48.096C78.7195 47.712 79.5835 47.232 80.5435 46.752C81.3115 46.368 81.9835 45.984 82.7515 45.696C83.4235 45.312 84.0955 44.928 84.6715 44.448C85.0555 44.16 85.4395 43.776 85.7275 43.392C84.3835 43.392 82.9435 43.68 81.5995 44.256C80.0635 44.832 78.5275 45.696 76.9915 46.56C77.2795 47.04 77.4715 47.616 77.6635 48.096ZM78.7195 51.168C79.7755 50.976 80.8315 50.784 81.8875 50.592C84.3835 50.208 86.8795 49.824 89.1835 48.864C91.0075 48.192 92.5435 46.944 94.0795 45.696C94.6555 45.216 95.1355 44.832 95.7115 44.448C95.0395 44.352 94.2715 44.352 93.5995 44.256C91.6795 44.16 89.6635 43.968 87.8395 44.448C85.3435 44.928 83.1355 46.08 80.8315 47.232C79.8715 47.712 78.9115 48.288 77.9515 48.672C78.2395 49.536 78.5275 50.304 78.7195 51.168ZM76.7035 45.984C78.0475 45.312 79.2955 44.544 80.6395 44.064C80.9275 43.776 81.2155 43.488 81.5035 43.104C81.5995 43.008 81.6955 42.816 81.7915 42.624C81.3115 42.72 80.8315 42.912 80.3515 43.104C79.6795 43.392 79.0075 43.776 78.4315 44.16C77.8555 44.736 77.1835 45.216 76.6075 45.792C76.6075 45.792 76.7035 45.888 76.7035 45.984ZM59.9035 33.216C60.0955 32.544 60.1915 31.968 60.3835 31.296C60.3835 30.528 60.4795 29.664 60.4795 28.8C60.4795 28.224 60.3835 27.648 60.3835 27.072C60.2875 27.168 60.1915 27.264 60.0955 27.456C59.9035 27.84 59.7115 28.224 59.5195 28.608C59.4235 30.048 59.1355 31.488 58.8475 33.024C59.2315 33.12 59.5195 33.12 59.9035 33.216ZM76.3195 45.216C76.9915 44.64 77.5675 44.16 78.1435 43.584C78.6235 43.008 79.1035 42.528 79.3915 41.952C78.8155 42.144 78.2395 42.432 77.6635 42.72C76.9915 43.104 76.3195 43.584 75.6475 44.064C75.8395 44.448 76.0315 44.832 76.3195 45.216ZM75.2635 43.584L75.3595 43.488C76.2235 42.72 77.0875 41.856 77.5675 40.992C77.1835 41.184 76.7035 41.376 76.3195 41.568C75.7435 41.856 75.1675 42.336 74.5915 42.72C74.8795 43.008 75.0715 43.296 75.2635 43.584ZM74.3035 42.24C74.8795 41.664 75.4555 41.088 75.7435 40.224C75.4555 40.416 75.1675 40.608 74.7835 40.8C74.4955 41.088 74.1115 41.28 73.7275 41.664C73.9195 41.856 74.1115 42.048 74.3035 42.24ZM73.3435 41.184C73.6315 40.896 73.8235 40.608 74.0155 40.32C74.1115 40.032 74.3035 39.84 74.3995 39.456C74.1115 39.552 73.8235 39.744 73.5355 39.84C73.2475 40.032 73.0555 40.224 72.7675 40.512C72.9595 40.704 73.1515 40.896 73.3435 41.184ZM72.2875 40.032C72.4795 39.84 72.6715 39.552 72.7675 39.36C72.9595 39.168 73.0555 38.976 73.0555 38.784C72.8635 38.784 72.6715 38.976 72.4795 39.072C72.2875 39.168 72.0955 39.36 71.9035 39.552C71.9995 39.744 72.0955 39.84 72.2875 39.936C72.2875 40.032 72.2875 40.032 72.2875 40.032ZM71.4235 39.168C71.6155 38.784 71.8075 38.4 71.9995 38.016C71.8075 38.112 71.6155 38.208 71.5195 38.304C71.2315 38.4 71.0395 38.592 70.8475 38.688C71.0395 38.88 71.2315 38.976 71.4235 39.168ZM70.2715 38.208C70.4635 37.824 70.5595 37.44 70.6555 37.152C70.5595 37.152 70.4635 37.248 70.3675 37.344C70.1755 37.44 69.9835 37.632 69.7915 37.824C69.9835 37.92 70.0795 38.016 70.2715 38.208ZM69.1195 37.344C69.2155 36.864 69.4075 36.48 69.4075 36C69.2155 36.096 69.1195 36.288 68.9275 36.384C68.7355 36.576 68.6395 36.672 68.5435 36.864C68.7355 37.056 68.9275 37.152 69.1195 37.344ZM67.9675 36.48C68.0635 36.288 68.0635 36.096 68.1595 35.808C68.2555 35.616 68.2555 35.424 68.2555 35.232C68.0635 35.328 67.9675 35.52 67.7755 35.616C67.6795 35.808 67.5835 36 67.3915 36.192C67.5835 36.288 67.7755 36.384 67.9675 36.48ZM66.8155 35.904C67.0075 35.424 67.1995 34.848 67.1995 34.272C67.0075 34.368 66.8155 34.56 66.7195 34.752C66.4315 34.944 66.2395 35.136 66.0475 35.424C66.3355 35.52 66.6235 35.712 66.8155 35.904ZM65.4715 35.136C65.5675 34.848 65.6635 34.464 65.7595 34.176C65.7595 33.888 65.8555 33.6 65.8555 33.312C65.6635 33.408 65.4715 33.6 65.3755 33.888C65.0875 34.176 64.8955 34.464 64.7035 34.848C64.9915 34.944 65.1835 35.04 65.4715 35.136ZM64.1275 34.56C64.4155 33.888 64.7035 33.216 64.7995 32.448C64.5115 32.736 64.3195 32.928 64.1275 33.216C63.8395 33.6 63.6475 33.888 63.4555 34.272C63.7435 34.368 63.9355 34.464 64.1275 34.56ZM62.7835 34.08C62.9755 33.504 63.0715 32.832 63.1675 32.256C63.2635 31.776 63.2635 31.296 63.2635 30.816C62.8795 31.296 62.6875 31.68 62.4955 32.16C62.3035 32.544 62.2075 32.928 62.1115 33.216C62.1115 33.408 62.0155 33.6 62.0155 33.792C62.3035 33.888 62.5915 33.984 62.7835 34.08ZM61.4395 33.6C61.4395 33.408 61.5355 33.312 61.5355 33.12C61.7275 32.448 61.8235 31.776 61.9195 31.2C62.0155 30.528 62.0155 29.856 62.0155 29.28C61.7275 29.76 61.4395 30.24 61.1515 30.912C60.8635 31.68 60.6715 32.544 60.4795 33.408C60.8635 33.408 61.1515 33.504 61.4395 33.6ZM58.1755 32.928C58.5595 31.104 58.9435 29.376 59.0395 27.744C59.1355 26.208 59.0395 24.768 58.6555 23.424C58.3675 23.904 58.1755 24.384 57.9835 24.864C57.6955 25.536 57.5035 26.208 57.4075 27.072C57.3115 27.84 57.1195 28.608 57.0235 29.376C56.8315 30.528 56.7355 31.68 56.6395 32.736C57.1195 32.832 57.6955 32.832 58.1755 32.928ZM52.8955 32.736C52.7035 31.68 52.5115 30.528 52.3195 29.376C52.2235 28.608 52.1275 27.84 51.9355 27.072C51.8395 26.208 51.6475 25.536 51.3595 24.864C51.1675 24.384 50.9755 23.904 50.6875 23.424C50.3035 24.768 50.2075 26.208 50.3035 27.744C50.3995 29.376 50.7835 31.104 51.1675 32.928C51.7435 32.832 52.3195 32.736 52.8955 32.736ZM55.9675 32.736C56.1595 31.584 56.2555 30.432 56.4475 29.28C56.8315 26.784 57.2155 24.288 56.9275 21.792C56.8315 19.872 56.0635 18.048 55.3915 16.224C55.1035 15.552 54.9115 14.976 54.6235 14.304C54.4315 14.976 54.1435 15.552 53.8555 16.224C53.1835 18.048 52.4155 19.872 52.3195 21.792C52.1275 24.288 52.5115 26.784 52.9915 29.28C53.0875 30.432 53.2795 31.584 53.4715 32.736C53.8555 32.64 54.2395 32.64 54.6235 32.64C55.1035 32.64 55.5835 32.736 55.9675 32.736ZM50.1115 30.72C49.9195 29.856 49.6315 28.992 49.3435 28.32C49.1515 27.744 48.8635 27.36 48.5755 26.976C48.4795 27.552 48.3835 28.128 48.3835 28.8C48.2875 29.568 48.3835 30.336 48.3835 31.104C48.7675 31.776 48.9595 32.544 49.1515 33.312C49.6315 33.216 50.1115 33.12 50.5915 33.024C50.3995 32.256 50.2075 31.488 50.1115 30.72ZM48.5755 33.408C48.3835 32.736 48.1915 31.968 47.8075 31.296C47.6155 30.72 47.2315 30.24 46.7515 29.76C46.7515 30.432 46.8475 31.104 46.9435 31.776C47.1355 32.448 47.3275 33.12 47.6155 33.696C47.9035 33.6 48.2875 33.504 48.5755 33.408ZM47.0395 33.888C46.7515 33.408 46.4635 32.928 46.1755 32.544C45.8875 32.16 45.5035 31.872 45.2155 31.584C45.2155 32.064 45.3115 32.448 45.4075 32.928C45.5035 33.408 45.6955 33.792 45.8875 34.272C46.2715 34.08 46.6555 33.984 47.0395 33.888ZM45.3115 34.464H45.2155C44.9275 33.888 44.5435 33.408 44.0635 32.928C44.0635 33.216 44.0635 33.408 44.1595 33.696C44.2555 34.08 44.3515 34.464 44.5435 34.848C44.7355 34.752 45.0235 34.56 45.3115 34.464ZM43.9675 35.136C43.7755 34.848 43.5835 34.56 43.3915 34.368C43.1995 34.176 43.0075 33.888 42.8155 33.792C42.8155 34.08 42.8155 34.368 42.9115 34.56C43.0075 34.848 43.1035 35.136 43.2955 35.424C43.4875 35.328 43.6795 35.232 43.9675 35.136ZM42.7195 35.712C42.5275 35.328 42.2395 35.04 41.8555 34.752C41.9515 34.944 41.9515 35.136 42.0475 35.328C42.0475 35.52 42.1435 35.808 42.2395 36C42.4315 35.904 42.5275 35.808 42.7195 35.712ZM41.6635 36.384C41.3755 36 41.0875 35.712 40.7995 35.52C40.8955 36 40.9915 36.288 41.1835 36.576C41.3755 36.48 41.4715 36.384 41.6635 36.384ZM40.7035 36.96C40.3195 36.576 40.0315 36.192 39.6475 35.904C39.6475 36.192 39.6475 36.384 39.7435 36.576C39.8395 36.768 40.0315 37.056 40.2235 37.344C40.3195 37.152 40.5115 37.056 40.7035 36.96ZM39.6475 37.728C39.4555 37.536 39.2635 37.44 39.0715 37.248C38.9755 37.152 38.8795 37.056 38.7835 37.056C38.8795 37.152 38.8795 37.344 38.8795 37.536C38.9755 37.728 39.0715 37.92 39.1675 38.112C39.2635 38.016 39.4555 37.824 39.6475 37.728ZM38.5915 38.592C38.3995 38.4 38.2075 38.304 38.0155 38.112C37.8235 38.016 37.6315 37.92 37.4395 37.824C37.5355 38.016 37.6315 38.208 37.7275 38.4C37.8235 38.592 38.0155 38.784 38.1115 38.976C38.3035 38.88 38.3995 38.688 38.5915 38.592ZM37.6315 39.456C37.4395 39.264 37.1515 39.072 36.9595 38.976C36.7675 38.88 36.5755 38.784 36.3835 38.688C36.4795 38.88 36.5755 39.072 36.6715 39.264C36.7675 39.552 36.9595 39.744 37.0555 39.936C37.2475 39.744 37.4395 39.552 37.6315 39.456ZM36.6715 40.416C36.3835 40.128 36.0955 39.936 35.8075 39.744C35.6155 39.648 35.4235 39.552 35.2315 39.456C35.3275 39.744 35.4235 39.936 35.6155 40.224C35.8075 40.512 35.9995 40.704 36.1915 40.896C36.2875 40.704 36.4795 40.608 36.6715 40.416ZM35.7115 41.376C35.4235 41.088 35.0395 40.896 34.6555 40.704C34.3675 40.512 34.0795 40.32 33.6955 40.224C33.8875 40.512 34.0795 40.8 34.2715 40.992C34.5595 41.376 34.8475 41.664 35.2315 42.048C35.4235 41.856 35.5195 41.568 35.7115 41.376ZM34.8475 42.528C34.2715 42.144 33.7915 41.856 33.3115 41.568C32.9275 41.28 32.5435 41.088 32.1595 40.992C32.4475 41.376 32.7355 41.76 33.0235 42.144C33.4075 42.528 33.7915 42.912 34.2715 43.296C34.4635 43.104 34.6555 42.816 34.8475 42.528ZM33.8875 43.872L33.7915 43.776C32.5435 43.104 31.2955 42.336 30.0475 41.856C30.1435 41.952 30.2395 42.144 30.4315 42.336C30.7195 42.72 31.0075 43.104 31.4875 43.488C32.1595 43.776 32.7355 44.16 33.4075 44.64C33.5035 44.352 33.6955 44.064 33.8875 43.872ZM33.1195 45.12C32.2555 44.544 31.2955 44.064 30.4315 43.584C29.5675 43.2 28.6075 42.816 27.6475 42.624C27.8395 42.72 27.9355 42.912 28.0315 43.008C28.3195 43.392 28.6075 43.68 28.8955 44.064C30.1435 44.544 31.3915 45.216 32.6395 45.984C32.8315 45.696 32.9275 45.408 33.1195 45.12ZM32.3515 46.464C30.7195 45.6 29.1835 44.736 27.6475 44.16C26.2075 43.584 24.8635 43.2 23.4235 43.2C23.8075 43.584 24.1915 43.968 24.5755 44.256C25.1515 44.736 25.7275 45.12 26.4955 45.504C27.1675 45.888 27.9355 46.176 28.6075 46.56C29.6635 47.136 30.6235 47.616 31.6795 48.096C31.8715 47.52 32.0635 46.944 32.3515 46.464ZM24.8635 50.688C24.0955 50.592 23.3275 50.496 22.6555 50.592C22.0795 50.592 21.5995 50.688 21.0235 50.784C22.1755 51.648 23.5195 52.128 25.0555 52.512C26.5915 52.8 28.3195 52.992 30.1435 53.184C30.2395 52.704 30.3355 52.128 30.5275 51.648C29.3755 51.36 28.3195 51.168 27.2635 51.072C26.3995 50.88 25.6315 50.784 24.8635 50.688ZM30.0475 53.76C28.3195 53.664 26.7835 53.472 25.2475 53.088C24.9595 53.088 24.5755 53.184 24.2875 53.28C24.0955 53.28 23.9995 53.376 23.9035 53.376C25.6315 54.048 27.0715 54.048 28.6075 54.048C29.0875 54.048 29.5675 54.048 30.0475 54.048C30.0475 53.952 30.0475 53.856 30.0475 53.76ZM31.3915 48.576C30.4315 48.096 29.3755 47.616 28.3195 47.136C26.1115 45.984 23.8075 44.832 21.4075 44.256C19.4875 43.776 17.5675 43.968 15.5515 44.16C14.8795 44.16 14.2075 44.256 13.5355 44.256C14.0155 44.64 14.5915 45.12 15.1675 45.504C16.7035 46.752 18.2395 48 19.9675 48.768C22.3675 49.632 24.8635 50.016 27.3595 50.496C28.4155 50.592 29.5675 50.784 30.6235 51.072C30.8155 50.208 31.1035 49.44 31.3915 48.576ZM29.7595 56.256C29.0875 56.352 28.4155 56.352 27.7435 56.256C27.3595 56.352 27.0715 56.448 26.6875 56.544C26.5915 56.64 26.4955 56.64 26.3035 56.736C26.8795 56.928 27.4555 57.024 28.0315 57.12C28.6075 57.216 29.1835 57.312 29.7595 57.312C29.7595 56.928 29.7595 56.544 29.7595 56.256ZM29.9515 54.72C29.0875 54.72 28.2235 54.72 27.3595 54.816C26.6875 54.912 26.0155 55.008 25.3435 55.2C26.0155 55.488 26.6875 55.584 27.3595 55.68C28.2235 55.776 28.9915 55.68 29.8555 55.68C29.8555 55.296 29.8555 55.008 29.9515 54.72ZM34.4635 80.544C35.0395 79.968 35.6155 79.392 36.1915 78.816C37.0555 78.144 37.8235 77.376 38.5915 76.608C38.1115 76.224 37.7275 75.84 37.2475 75.456C35.9035 76.608 34.6555 77.76 33.5995 78.912C32.5435 80.064 31.7755 81.216 31.2955 82.464C31.7755 82.368 32.2555 82.08 32.6395 81.888C33.3115 81.504 33.8875 81.024 34.4635 80.544ZM36.8635 74.976C36.6715 74.784 36.3835 74.592 36.1915 74.304C35.2315 75.072 34.4635 75.84 33.5995 76.608C32.9275 77.376 32.2555 78.144 31.6795 78.912C31.8715 78.912 32.0635 78.816 32.1595 78.816C32.6395 78.624 33.0235 78.528 33.4075 78.24C34.4635 77.088 35.6155 76.032 36.8635 74.976ZM35.8075 73.824C35.7115 73.728 35.5195 73.536 35.4235 73.344C35.2315 73.536 35.0395 73.632 34.8475 73.728C34.2715 74.208 33.7915 74.592 33.3115 75.072C32.8315 75.648 32.3515 76.128 31.9675 76.704C32.0635 76.704 32.2555 76.608 32.3515 76.608C32.6395 76.512 33.0235 76.416 33.3115 76.128C34.0795 75.36 34.9435 74.592 35.8075 73.824ZM35.0395 72.864C34.8475 72.672 34.6555 72.384 34.4635 72.096C33.8875 72.48 33.4075 72.864 33.0235 73.344C32.6395 73.632 32.2555 74.016 32.0635 74.4C32.4475 74.304 32.9275 74.112 33.4075 73.92C33.7915 73.728 34.1755 73.536 34.4635 73.248C34.6555 73.152 34.8475 72.96 35.0395 72.864ZM34.0795 71.616C33.8875 71.328 33.6955 71.136 33.5995 70.848C33.5035 70.848 33.4075 70.944 33.3115 70.944C33.0235 71.232 32.6395 71.52 32.3515 71.808C32.0635 72.096 31.7755 72.384 31.5835 72.672C31.9675 72.672 32.3515 72.576 32.7355 72.384C33.2155 72.192 33.5995 71.904 34.0795 71.616ZM33.2155 70.272C33.1195 70.08 33.0235 69.888 32.9275 69.696C32.5435 69.888 32.2555 70.08 31.9675 70.368C31.7755 70.56 31.5835 70.752 31.3915 71.04C31.6795 70.944 31.9675 70.944 32.2555 70.848C32.4475 70.752 32.7355 70.56 33.0235 70.464C33.1195 70.368 33.2155 70.368 33.2155 70.272ZM32.5435 69.12C32.4475 68.832 32.2555 68.448 32.0635 68.16C31.7755 68.352 31.5835 68.544 31.2955 68.736C31.1035 68.928 31.0075 69.12 30.8155 69.408C31.1035 69.408 31.4875 69.312 31.7755 69.312C32.0635 69.216 32.3515 69.216 32.5435 69.12ZM31.7755 67.488C31.6795 67.296 31.5835 67.104 31.4875 66.816C31.2955 66.912 31.1035 67.104 30.9115 67.296C30.7195 67.392 30.6235 67.488 30.5275 67.68C30.7195 67.68 30.9115 67.68 31.1035 67.68C31.3915 67.584 31.5835 67.584 31.7755 67.488ZM31.2955 66.24C31.1995 65.952 31.1035 65.664 31.0075 65.376C30.8155 65.472 30.6235 65.568 30.5275 65.664C30.3355 65.856 30.1435 65.952 29.9515 66.144C30.2395 66.24 30.4315 66.24 30.6235 66.336C30.9115 66.336 31.1035 66.24 31.2955 66.24ZM30.8155 64.704C30.7195 64.416 30.6235 64.128 30.5275 63.936C30.3355 64.032 30.1435 64.128 30.0475 64.224C29.8555 64.32 29.6635 64.416 29.5675 64.608C29.7595 64.608 29.9515 64.704 30.2395 64.704C30.4315 64.704 30.6235 64.704 30.8155 64.704ZM30.4315 63.264C30.3355 63.072 30.3355 62.784 30.2395 62.496C30.0475 62.592 29.7595 62.784 29.5675 62.88C29.3755 62.976 29.1835 63.072 29.0875 63.264C29.2795 63.264 29.4715 63.36 29.6635 63.36C29.9515 63.36 30.1435 63.36 30.4315 63.264ZM30.1435 61.824C30.0475 61.632 30.0475 61.344 30.0475 61.152C29.7595 61.248 29.4715 61.344 29.2795 61.44C29.0875 61.632 28.8955 61.728 28.7035 61.824C28.9915 61.92 29.1835 61.92 29.3755 61.92C29.6635 61.92 29.8555 61.92 30.1435 61.824ZM29.9515 60.384C29.8555 60.096 29.8555 59.808 29.8555 59.52C29.4715 59.616 29.1835 59.712 28.8955 59.904C28.7035 60 28.4155 60.096 28.2235 60.192C28.5115 60.192 28.7035 60.288 28.9915 60.288C29.2795 60.384 29.5675 60.384 29.9515 60.384ZM29.7595 58.848C29.7595 58.56 29.7595 58.272 29.7595 57.984C29.2795 57.984 28.8955 58.08 28.4155 58.176C28.0315 58.272 27.7435 58.368 27.3595 58.464C27.7435 58.656 28.1275 58.656 28.4155 58.752C28.8955 58.848 29.3755 58.848 29.7595 58.848ZM71.7115 40.608C67.2955 36.192 61.3435 33.504 54.6235 33.504C47.9995 33.504 41.9515 36.192 37.6315 40.608C33.3115 44.928 30.6235 50.976 30.6235 57.6C30.6235 64.224 33.3115 70.272 37.6315 74.592C41.9515 78.912 47.9995 81.6 54.6235 81.6C61.3435 81.6 67.2955 78.912 71.7115 74.592C76.0315 70.272 78.7195 64.224 78.7195 57.6C78.7195 50.976 76.0315 44.928 71.7115 40.608Z" fill="#004D71"/>
<path fill-rule="evenodd" clip-rule="evenodd" d="M54.6239 38.688C65.0879 38.688 73.5359 47.136 73.5359 57.6C73.5359 67.968 65.0879 76.512 54.6239 76.512C44.2559 76.512 35.7119 67.968 35.7119 57.6C35.7119 47.136 44.2559 38.688 54.6239 38.688ZM54.6239 46.944C60.5759 46.944 65.3759 51.744 65.3759 57.6C65.3759 63.456 60.5759 68.256 54.6239 68.256C48.7679 68.256 43.9679 63.456 43.9679 57.6C43.9679 51.744 48.7679 46.944 54.6239 46.944ZM55.5839 40.608L55.7759 40.416L56.1599 40.224L56.4479 40.128L56.8319 40.032H57.3119H57.6959H58.1759L58.6559 40.128L59.1359 40.224L59.6159 40.32L60.0959 40.512L60.5759 40.704L60.9599 40.896L61.4399 41.184L61.8239 41.376L62.2079 41.664L62.5919 41.952L62.9759 42.24L63.1679 42.528L63.4559 42.912L63.6479 43.2L63.7439 43.488L63.8399 43.776L63.9359 44.064L63.8399 44.352L63.7439 44.64L63.6479 44.928L61.3439 48L61.1519 47.904L60.9599 47.808L60.7679 47.616L60.3839 47.328L59.9039 47.136L59.4239 46.944C59.1359 46.752 58.8479 46.656 58.6559 46.56C58.3679 46.464 58.0799 46.368 57.8879 46.368C57.5999 46.272 57.3119 46.176 57.1199 46.08L56.5439 45.984C56.3519 45.984 56.1599 45.888 55.8719 45.888H55.4879H55.2959H55.1999H55.0079H54.9119L54.8159 42.336L54.9119 41.856L55.0079 41.472L55.1039 41.088L55.2959 40.8L55.5839 40.608ZM65.3759 44.352H65.6639L66.0479 44.448L66.4319 44.544L66.7199 44.64L67.1039 44.928L67.4879 45.12L67.7759 45.408L68.1599 45.792L68.4479 46.176L68.7359 46.56L69.0239 46.944L69.3119 47.424L69.5999 47.808L69.7919 48.288L69.9839 48.768L70.1759 49.152L70.2719 49.632L70.3679 50.016V50.496L70.4639 50.88L70.3679 51.168V51.552L70.2719 51.84L70.0799 52.032L69.8879 52.32L69.5999 52.416L69.3119 52.608L65.6639 53.76V53.568L65.5679 53.376L65.3759 52.896L65.1839 52.416L64.8959 51.936L64.6079 51.456C64.5119 51.264 64.3199 50.976 64.1279 50.784C64.0319 50.592 63.8399 50.304 63.6479 50.112C63.5519 49.92 63.3599 49.728 63.1679 49.536L62.8799 49.152L62.5919 48.864C62.3039 48.672 62.0159 48.384 61.7279 48.288L63.7439 45.408L64.0319 45.024L64.4159 44.736L64.7039 44.544L64.9919 44.448L65.3759 44.352ZM71.1359 53.184L71.3279 53.376L71.6159 53.664L71.8079 53.952L71.9999 54.24L72.1919 54.624L72.2879 55.104L72.3839 55.488L72.4799 55.968L72.5759 56.448V56.928V57.408L72.4799 57.984V58.464L72.3839 58.944L72.2879 59.424L72.0959 59.904L71.9999 60.288L71.8079 60.672L71.6159 61.056L71.3279 61.44L71.1359 61.632L70.8479 61.92L70.6559 62.112L70.3679 62.208H70.0799H69.7919H69.5039L65.7599 60.96L65.8559 60.768L65.9519 60.576L66.0479 60.384L66.1439 59.808L66.2399 59.328V58.752C66.3359 58.464 66.3359 58.272 66.3359 57.984C66.3359 57.696 66.3359 57.408 66.3359 57.12C66.3359 56.832 66.3359 56.64 66.3359 56.352L66.2399 55.872V55.392C66.1439 55.008 66.0479 54.528 65.8559 54.24L69.2159 53.088L69.6959 52.896H70.0799H70.4639L70.7519 52.992L71.1359 53.184ZM70.5599 63.648L70.6559 64.032V64.32L70.7519 64.704L70.6559 65.088L70.5599 65.472L70.4639 65.952L70.2719 66.336L70.0799 66.72L69.7919 67.2L69.5039 67.584L69.2159 67.968L68.9279 68.352L68.5439 68.736L68.1599 69.12L67.7759 69.408L67.3919 69.696L67.0079 69.984L66.7199 70.176L66.3359 70.368L65.9519 70.464L65.5679 70.56L65.2799 70.656H64.8959L64.6079 70.56L64.4159 70.464L64.1279 70.272L63.9359 69.984L61.6319 66.912L61.8239 66.816L62.0159 66.624L62.3999 66.336L62.7839 65.952L63.1679 65.568C63.3599 65.376 63.5519 65.184 63.7439 64.992C63.8399 64.8 64.0319 64.512 64.2239 64.32C64.4159 64.128 64.5119 63.84 64.7039 63.648C64.7999 63.456 64.9919 63.264 65.0879 62.976L65.2799 62.592C65.4719 62.208 65.6639 61.824 65.6639 61.44L69.1199 62.496L69.5039 62.592L69.8879 62.88L70.1759 63.072L70.3679 63.36L70.5599 63.648ZM63.9359 71.808L63.8399 72.192L63.6479 72.48L63.4559 72.768L63.1679 73.056L62.8799 73.344L62.4959 73.632L62.1119 73.824L61.7279 74.016L61.2479 74.208L60.7679 74.4L60.2879 74.592L59.8079 74.688L59.3279 74.784L58.8479 74.88H58.3679H57.8879H57.4079H56.9279L56.5439 74.784L56.1599 74.688L55.8719 74.496L55.5839 74.4L55.2959 74.208L55.1039 73.92L55.0079 73.728L54.9119 73.44V73.056V69.216H55.1039H55.2959H55.7759L56.3519 69.12L56.8319 69.024C57.1199 69.024 57.4079 68.928 57.5999 68.832C57.8879 68.832 58.1759 68.736 58.4639 68.64C58.6559 68.544 58.9439 68.448 59.2319 68.352C59.4239 68.256 59.7119 68.16 59.9039 68.064L60.2879 67.872C60.6719 67.68 61.0559 67.488 61.3439 67.2L63.4559 69.984L63.7439 70.368L63.8399 70.752L63.9359 71.136V71.52V71.808ZM53.7599 74.592L53.4719 74.784L53.1839 74.976L52.7999 75.072L52.4159 75.168H52.0319H51.5519H51.1679L50.6879 75.072L50.2079 74.976L49.7279 74.784L49.2479 74.688L48.7679 74.496L48.2879 74.208L47.9039 74.016L47.4239 73.728L47.0399 73.44L46.7519 73.248L46.3679 72.864L46.0799 72.576L45.8879 72.288L45.6959 72L45.5039 71.712L45.4079 71.424V71.136V70.848L45.5039 70.56L45.6959 70.272L47.9999 67.104L48.0959 67.296L48.2879 67.392L48.4799 67.488L48.9599 67.776L49.4399 68.064L49.9199 68.256L50.3999 68.448C50.6879 68.544 50.9759 68.64 51.1679 68.736C51.4559 68.832 51.7439 68.928 52.0319 69.024L52.5119 69.12C52.7039 69.12 52.9919 69.216 53.1839 69.216C53.5679 69.312 54.0479 69.312 54.4319 69.216L54.5279 72.768L54.4319 73.248L54.3359 73.728L54.2399 74.016L54.0479 74.304L53.7599 74.592ZM43.9679 70.848H43.5839L43.2959 70.752L42.9119 70.656L42.5279 70.464L42.2399 70.272L41.8559 69.984L41.4719 69.696L41.1839 69.408L40.8959 69.024L40.5119 68.64L40.2239 68.256L40.0319 67.776L39.7439 67.296L39.5519 66.912L39.3599 66.432L39.1679 65.952L39.0719 65.568L38.9759 65.088L38.8799 64.704V64.32V63.936L38.9759 63.648L39.0719 63.36L39.2639 63.072L39.4559 62.88L39.6479 62.688L39.9359 62.592L43.6799 61.344V61.536L43.7759 61.824L43.9679 62.304L44.1599 62.688L44.4479 63.168L44.7359 63.648C44.8319 63.936 45.0239 64.128 45.1199 64.416C45.3119 64.608 45.5039 64.8 45.5999 64.992L45.9839 65.472C46.0799 65.664 46.2719 65.856 46.4639 65.952L46.7519 66.336L47.0399 66.528L47.2319 66.624L47.3279 66.72L47.5199 66.816L47.6159 66.912L45.5999 69.792L45.2159 70.176L44.9279 70.464L44.6399 70.656L44.2559 70.752L43.9679 70.848ZM38.2079 62.016L37.9199 61.824L37.7279 61.536L37.4399 61.248L37.2479 60.864L37.1519 60.48L36.9599 60.096L36.8639 59.616V59.232L36.7679 58.752V58.176V57.696V57.216L36.8639 56.736L36.9599 56.256L37.0559 55.776L37.1519 55.296L37.3439 54.816L37.5359 54.432L37.7279 54.048L37.9199 53.76L38.2079 53.472L38.3999 53.28L38.6879 53.088L38.9759 52.992L39.2639 52.896H39.5519L39.8399 52.992L43.4879 54.144L43.3919 54.336V54.624L43.2959 54.816L43.1999 55.296L43.1039 55.872L43.0079 56.352C43.0079 56.64 43.0079 56.928 43.0079 57.216V57.792V58.272C43.0079 58.56 43.0079 58.848 43.0079 59.04L43.1039 59.52V60L43.1999 60.384L43.2959 60.576L43.3919 60.768V60.864L43.4879 60.96L40.1279 62.112L39.6479 62.208L39.2639 62.304L38.8799 62.208L38.4959 62.112L38.2079 62.016ZM38.6879 51.168L38.5919 50.784V50.4L38.6879 50.016L38.7839 49.632L38.8799 49.248L39.0719 48.864L39.2639 48.384L39.5519 48L39.8399 47.52L40.1279 47.136L40.4159 46.752L40.7999 46.368L41.0879 46.08L41.4719 45.792L41.8559 45.408L42.2399 45.216L42.6239 45.024L43.0079 44.832L43.3919 44.64L43.7759 44.544H44.0639H44.3519L44.6399 44.64L44.9279 44.736L45.1199 44.928L45.4079 45.12L47.6159 48.288L47.4239 48.384L47.3279 48.576L47.1359 48.672L46.7519 49.056L46.3679 49.44L45.9839 49.824C45.8879 50.016 45.6959 50.208 45.5039 50.496C45.4079 50.688 45.2159 50.88 45.0239 51.168C44.9279 51.36 44.7359 51.552 44.6399 51.84C44.5439 52.032 44.3519 52.224 44.2559 52.416C44.1599 52.608 44.0639 52.8 43.9679 52.992L43.8719 53.376C43.7759 53.472 43.6799 53.664 43.6799 53.76L40.2239 52.704L39.8399 52.512L39.4559 52.32L39.1679 52.032L38.9759 51.744L38.7839 51.456L38.6879 51.168ZM45.4079 43.296L45.5039 43.008L45.6959 42.624L45.8879 42.336L46.1759 42.048L46.4639 41.856L46.8479 41.568L47.2319 41.28L47.6159 41.088L48.0959 40.896L48.4799 40.704L48.9599 40.608L49.5359 40.512L50.0159 40.416L50.4959 40.32H50.9759L51.4559 40.224L51.9359 40.32H52.3199L52.7039 40.416L53.0879 40.512L53.4719 40.608L53.7599 40.8L53.9519 40.992L54.1439 41.184L54.3359 41.472L54.4319 41.76V42.048V45.888H54.2399H54.0479L53.5679 45.984H52.9919L52.5119 46.08C52.2239 46.176 51.9359 46.176 51.6479 46.272C51.3599 46.368 51.1679 46.464 50.8799 46.56C50.5919 46.56 50.3999 46.656 50.1119 46.752L49.6319 46.944C49.4399 47.04 49.2479 47.136 48.9599 47.232C48.6719 47.424 48.2879 47.712 47.9999 48L45.8879 45.12L45.5999 44.736L45.4079 44.352L45.3119 43.968V43.68L45.4079 43.296Z" fill="#004D71"/>
<path d="M41.2803 48.5761L42.3363 46.9441L42.5283 46.5601L42.9123 46.8481C43.1043 47.0401 43.2963 47.1361 43.5843 47.3281C43.9683 47.6161 44.3523 48.0001 44.8323 48.2881V48.3841C45.0243 48.5761 45.1203 49.0561 45.0243 49.4401C45.0243 49.8241 44.8323 50.3041 44.6403 50.5921C44.5443 50.5921 44.5443 50.5921 44.5443 50.5921C44.2563 50.8801 43.8723 51.1681 43.4883 51.3601C43.1043 51.6481 42.6243 51.7441 42.0483 51.5521L42.3363 50.7841C42.6243 50.8801 42.9123 50.7841 43.2003 50.6881C43.4883 50.5921 43.7763 50.3041 43.9683 50.0161C44.1603 49.9201 44.2563 49.6321 44.2563 49.3441C44.2563 49.1521 44.2563 48.9601 44.2563 48.9601C43.8723 48.5761 43.4883 48.2881 43.1043 48.0001C43.0083 47.9041 42.8163 47.8081 42.7203 47.7121L41.9523 49.0561L41.2803 48.5761Z" fill="#004D71"/>
<path d="M39.2643 59.3281C39.9363 59.3281 40.6083 59.3281 41.1843 59.2321C41.1843 59.0401 41.1843 58.8481 41.1843 58.6561C41.1843 58.0801 41.0883 57.4081 41.0883 56.8321C41.0883 56.6401 40.8963 56.3521 40.7043 56.1601C40.5123 55.9681 40.3203 55.8721 40.0323 55.8721C39.8403 55.8721 39.6483 55.9681 39.5523 56.0641C39.3603 56.2561 39.1683 56.5441 39.1683 56.8321C39.0723 57.4081 38.9763 57.8881 39.0723 58.2721C39.0723 58.6561 39.1683 58.9441 39.2643 59.3281ZM41.2803 60.0001C40.5123 60.0961 39.7443 60.1921 38.9763 60.0961H38.7843L38.6883 59.8081C38.4963 59.3281 38.3043 58.8481 38.3043 58.3681C38.2083 57.8881 38.2083 57.3121 38.4003 56.7361C38.4963 56.2561 38.6883 55.8721 38.9763 55.5841C39.2643 55.2001 39.6483 55.0081 40.0323 55.0081C40.5123 55.0081 40.8963 55.2961 41.2803 55.5841C41.5683 55.9681 41.8563 56.3521 41.8563 56.7361C41.9523 57.4081 41.9523 57.9841 41.9523 58.6561C41.9523 58.9441 41.9523 59.2321 42.0483 59.6161V60.0001H41.6643C41.0883 60.0961 41.3763 60.0001 41.2803 60.0001Z" fill="#004D71"/>
<path d="M48.0962 46.368C48.0002 46.272 47.9042 46.08 47.8082 45.984C47.6162 45.696 47.4242 45.408 47.3282 45.024C47.0402 44.352 47.1362 43.776 47.4242 43.2C47.8082 42.72 48.3842 42.24 49.0562 42.048C49.1522 41.952 49.3442 41.952 49.4402 41.856C50.1122 41.664 50.6882 41.664 51.1682 41.856C51.7442 42.048 52.1282 42.336 52.3202 43.008C52.4162 43.008 52.4162 43.104 52.4162 43.2C52.5122 43.488 52.5122 43.968 52.6082 44.352C52.6082 44.448 52.6082 44.64 52.6082 44.736L51.8402 44.832C51.8402 44.736 51.8402 44.544 51.8402 44.352C51.7442 44.16 51.7442 43.968 51.7442 43.68C51.0722 43.872 50.4962 43.968 49.9202 44.256C49.3442 44.448 48.7682 44.736 48.1922 45.024C48.2882 45.216 48.3842 45.408 48.4802 45.504C48.5762 45.6 48.6722 45.792 48.7682 45.888L48.0962 46.368ZM48.0962 43.68C48.0002 43.776 48.0002 44.064 48.0002 44.256C48.4802 43.968 49.0562 43.68 49.6322 43.488C50.2082 43.296 50.8802 43.104 51.4562 43.008C51.3602 42.816 51.1682 42.624 50.9762 42.624C50.5922 42.528 50.2082 42.528 49.6322 42.624C49.5362 42.72 49.4402 42.72 49.2482 42.72C48.7682 42.912 48.3842 43.2 48.0962 43.68Z" fill="#004D71"/>
<path d="M61.9196 43.2C61.9196 43.776 61.9196 44.256 61.8236 44.736C61.7276 45.216 61.5356 45.696 61.1516 46.08L60.5756 45.696C60.7676 45.408 60.8636 45.12 60.9596 44.832C60.4796 44.544 59.9036 44.256 59.3276 44.16C58.7516 43.968 58.2716 43.872 57.6956 43.872C57.5996 44.16 57.5996 44.448 57.5996 44.736H56.8316C56.7356 44.256 56.8316 43.776 57.0236 43.296C57.2156 42.816 57.5036 42.336 57.8876 41.856L58.4636 42.432C58.2716 42.624 58.0796 42.816 57.9836 43.104C58.4636 43.104 59.0396 43.2 59.5196 43.392C60.0956 43.488 60.5756 43.776 61.1516 43.968C61.1516 43.776 61.1516 43.584 61.0556 43.296L61.9196 43.2Z" fill="#004D71"/>
<path d="M63.5518 48.288C63.6478 47.808 63.9358 47.424 64.2238 47.04C64.6078 46.656 64.9918 46.464 65.4718 46.368C65.9518 46.272 66.3358 46.464 66.6238 46.752C67.0078 46.944 67.2958 47.424 67.3918 47.712C67.3918 48 67.3918 48.192 67.2958 48.384C67.4878 48.384 67.6798 48.384 67.7758 48.48C67.7758 48.48 67.8718 48.48 67.8718 48.576C68.2558 48.768 68.4478 49.056 68.5438 49.44C68.6398 49.728 68.6398 50.112 68.4478 50.496C68.4478 50.496 68.4478 50.496 68.4478 50.592C68.1598 50.976 67.7758 51.264 67.3918 51.456C66.9118 51.744 66.3358 51.84 65.8558 51.744L65.9518 50.976C66.3358 50.976 66.7198 50.976 67.0078 50.784C67.2958 50.688 67.5838 50.4 67.7758 50.208C67.7758 50.208 67.7758 50.208 67.7758 50.112C67.8718 50.016 67.8718 49.824 67.7758 49.632C67.7758 49.44 67.6798 49.344 67.4878 49.248C67.3918 49.152 67.2958 49.152 67.1998 49.152C67.0078 49.152 66.8158 49.152 66.7198 49.152L65.9518 49.248L66.2398 48.576C66.3358 48.48 66.3358 48.384 66.4318 48.288C66.5278 48.192 66.6238 48 66.6238 47.904C66.5278 47.712 66.3358 47.52 66.1438 47.328C65.9518 47.232 65.7598 47.136 65.6638 47.136C65.3758 47.232 65.0878 47.328 64.7998 47.616C64.6078 47.808 64.4158 48.192 64.3198 48.48L63.5518 48.288Z" fill="#004D71"/>
<path d="M67.4883 55.2L67.5843 55.104C68.2563 55.008 69.2163 54.816 69.8883 55.296C70.2723 55.488 70.6563 55.872 70.8483 56.256C71.1363 56.64 71.2323 57.12 71.2323 57.504C71.2323 58.08 71.1363 58.56 70.9443 58.944C70.7523 59.328 70.4643 59.712 69.9843 59.904C69.3123 60.384 68.4483 60.096 67.6803 60C67.6803 60 67.5843 59.904 67.4883 59.904L67.6803 59.136C67.6803 59.136 67.7763 59.136 67.8723 59.232C68.0643 59.232 68.1603 59.232 68.3523 59.328C68.3523 58.752 68.4483 58.176 68.4483 57.6C68.4483 57.024 68.4483 56.352 68.4483 55.776C68.1603 55.776 67.9683 55.872 67.6803 55.872L67.5843 55.968L67.4883 55.2ZM69.5043 55.968C69.4083 55.872 69.3123 55.872 69.2163 55.776C69.2163 56.352 69.3123 57.024 69.2163 57.6C69.2163 58.176 69.2163 58.752 69.1203 59.424C69.3123 59.424 69.5043 59.328 69.6003 59.232C69.8883 59.136 70.0803 58.848 70.1763 58.656C70.3683 58.272 70.4643 57.888 70.4643 57.504C70.4643 57.216 70.3683 56.928 70.1763 56.64C69.9843 56.352 69.7923 56.064 69.5043 55.968Z" fill="#004D71"/>
<path d="M65.9517 63.552C66.3357 63.744 66.7197 64.032 67.1997 64.224C67.5837 64.416 67.9677 64.608 68.4477 64.896L68.7357 65.088L68.5437 65.472L68.3517 65.76C67.6797 67.008 66.4317 69.312 64.7037 68.352C63.4557 67.776 63.6477 66.624 64.2237 65.568C64.4157 65.184 64.7037 64.704 64.9917 64.32C65.0877 64.128 65.2797 63.84 65.3757 63.648L65.5677 63.36L65.9517 63.552ZM66.8157 64.896C66.5277 64.704 66.2397 64.608 65.8557 64.416C65.7597 64.512 65.6637 64.608 65.5677 64.8C65.3757 65.184 65.0877 65.568 64.8957 65.952C64.5117 66.624 64.3197 67.296 64.9917 67.68C66.0477 68.256 67.1037 66.432 67.6797 65.376C67.3917 65.184 67.1037 65.088 66.8157 64.896Z" fill="#004D71"/>
<path d="M57.5043 70.176C57.5043 70.464 57.5043 70.752 57.5043 71.136C58.0803 71.04 58.6563 70.944 59.2323 70.752C59.8083 70.56 60.3843 70.272 61.0563 69.984C60.8643 69.696 60.7683 69.504 60.5763 69.312L61.1523 68.832C61.5363 69.12 61.8243 69.696 62.0163 70.176C62.1123 70.56 62.1123 71.04 62.1123 71.424C62.0163 71.808 61.8243 72.192 61.4403 72.576C61.1523 72.768 60.7683 73.056 60.1923 73.152C58.5603 73.728 57.6963 73.344 57.2163 72.576C56.7363 71.904 56.7363 70.944 56.7363 70.176H57.5043ZM57.6963 71.904C57.7923 72 57.7923 72.096 57.8883 72.096C58.1763 72.576 58.7523 72.864 60.0003 72.48C60.3843 72.288 60.6723 72.096 60.8643 71.904C61.1523 71.712 61.2483 71.52 61.3443 71.232C61.3443 71.04 61.3443 70.944 61.3443 70.752C60.6723 71.04 60.0963 71.328 59.4243 71.52C58.8483 71.712 58.2723 71.808 57.6963 71.904Z" fill="#004D71"/>
<path d="M48.6724 71.712C48.6724 71.808 48.7684 71.904 48.7684 71.904C49.2484 72.288 49.6324 72.576 50.1124 72.576C50.4964 72.576 50.9764 72.48 51.3604 72.096C51.3604 72.096 51.4564 72.096 51.4564 72C51.5524 72 51.5524 71.904 51.5524 71.904C51.6484 71.712 51.7444 71.52 51.6484 71.232C51.6484 71.04 51.4564 70.752 51.1684 70.464C51.0724 70.368 50.8804 70.272 50.6884 70.08C50.1124 69.792 49.7284 69.696 49.3444 69.696C49.0564 69.792 48.7684 69.984 48.3844 70.368C48.6724 70.464 48.9604 70.656 49.1524 70.752C49.5364 70.944 49.9204 71.04 50.3044 71.136L50.2084 71.904C49.7284 71.808 49.2484 71.712 48.8644 71.424C48.3844 71.232 48.0004 71.04 47.6164 70.752L47.2324 70.464L47.5204 70.176C48.0004 69.504 48.5764 69.12 49.1524 68.928C49.7284 68.832 50.4004 69.024 51.1684 69.408C51.3604 69.6 51.5524 69.792 51.7444 69.888C52.1284 70.272 52.3204 70.752 52.4164 71.136C52.5124 71.52 52.4164 72 52.2244 72.288C52.2244 72.384 52.1284 72.48 52.0324 72.576C52.0324 72.576 51.9364 72.672 51.8404 72.672C51.2644 73.248 50.6884 73.44 50.0164 73.344C49.4404 73.344 48.7684 72.96 48.2884 72.48C48.1924 72.384 48.0964 72.384 48.0964 72.288L48.6724 71.712Z" fill="#004D71"/>
<path d="M43.2963 64.032C43.0083 64.128 42.7203 64.32 42.4323 64.416C42.7203 64.992 43.0083 65.568 43.3923 66.048C43.6803 66.528 44.1603 67.008 44.6403 67.488C44.7363 67.2 44.9283 67.008 45.1203 66.72L45.7923 67.2C45.4083 67.776 45.0243 68.256 44.5443 68.544C44.1603 68.736 43.7763 68.928 43.3923 68.928C43.0083 68.928 42.6243 68.832 42.2403 68.64C41.8563 68.352 41.4723 67.968 41.1843 67.488C40.9923 67.296 40.8963 67.104 40.8003 66.912C40.6082 66.336 40.6082 65.76 40.8003 65.28C40.9923 64.704 41.3763 64.224 41.9523 63.84C42.2403 63.648 42.6243 63.456 43.0083 63.264L43.2963 64.032ZM41.8563 64.992C41.6643 65.184 41.5683 65.376 41.4723 65.472C41.3763 65.856 41.3763 66.24 41.5683 66.528C41.5683 66.72 41.6643 66.816 41.7603 67.008C42.0483 67.392 42.3363 67.776 42.7203 67.968C42.9123 68.064 43.2003 68.16 43.3923 68.16C43.5843 68.16 43.7763 68.064 43.9683 67.968C43.4883 67.488 43.1043 67.008 42.7203 66.528C42.3363 66.048 42.0483 65.568 41.8563 64.992Z" fill="#004D71"/>
</svg>
