<svg width="1080" height="1080" viewBox="0 0 1080 1080" fill="none" xmlns="http://www.w3.org/2000/svg">
<g clip-path="url(#clip0_2149_30)">
<circle cx="540" cy="540" r="528" fill="#FFFA72" stroke="#252525" stroke-width="24"/>
<path d="M486.259 543.578C385.504 442.823 385.504 279.466 486.259 178.711L540 124.971L593.74 178.711C694.495 279.466 694.495 442.823 593.74 543.578L540 597.318L486.259 543.578Z" fill="url(#paint0_linear_2149_30)" stroke="#252525" stroke-width="24"/>
<path d="M270 268C412.489 268 528 383.511 528 526V602H452C309.511 602 194 486.489 194 344V268H270Z" fill="url(#paint1_linear_2149_30)" stroke="#252525" stroke-width="24"/>
<path d="M810 268C667.511 268 552 383.511 552 526V602H628C770.489 602 886 486.489 886 344V268H810Z" fill="url(#paint2_linear_2149_30)" stroke="#252525" stroke-width="24"/>
<mask id="path-5-inside-1_2149_30" fill="white">
<path fill-rule="evenodd" clip-rule="evenodd" d="M33.5508 727.796C66.5062 706.212 120.666 669.921 139.5 652.5C162.94 630.818 182.716 605.856 200.44 583.484C228.085 548.59 250.736 520 274.5 520C296.043 520 311.484 523.967 325.962 527.686C337.695 530.7 348.796 533.552 362 534C374.701 534.43 405.661 495.563 441.033 451.157C487.817 392.423 542.319 324 572.5 324C599.227 324 633.964 370.663 669.979 419.043C705.383 466.602 742.022 515.82 773.5 524C790.066 528.305 806.416 527.436 822.117 526.602C843.476 525.467 863.634 524.397 881.5 536.5C898.109 547.751 908.26 580.532 917.719 611.08C925.914 637.548 933.591 662.34 944.5 670C982.222 696.486 1014.16 709.744 1048.35 722.585C973.496 930.968 774.152 1080 540 1080C307.804 1080 109.838 933.448 33.5508 727.796Z"/>
</mask>
<path fill-rule="evenodd" clip-rule="evenodd" d="M33.5508 727.796C66.5062 706.212 120.666 669.921 139.5 652.5C162.94 630.818 182.716 605.856 200.44 583.484C228.085 548.59 250.736 520 274.5 520C296.043 520 311.484 523.967 325.962 527.686C337.695 530.7 348.796 533.552 362 534C374.701 534.43 405.661 495.563 441.033 451.157C487.817 392.423 542.319 324 572.5 324C599.227 324 633.964 370.663 669.979 419.043C705.383 466.602 742.022 515.82 773.5 524C790.066 528.305 806.416 527.436 822.117 526.602C843.476 525.467 863.634 524.397 881.5 536.5C898.109 547.751 908.26 580.532 917.719 611.08C925.914 637.548 933.591 662.34 944.5 670C982.222 696.486 1014.16 709.744 1048.35 722.585C973.496 930.968 774.152 1080 540 1080C307.804 1080 109.838 933.448 33.5508 727.796Z" fill="#2EBF5E"/>
<path d="M139.5 652.5L123.203 634.881H123.203L139.5 652.5ZM33.5508 727.796L20.4015 707.719L4.39405 718.203L11.0491 736.143L33.5508 727.796ZM200.44 583.484L219.252 598.388L200.44 583.484ZM325.962 527.686L319.99 550.931L325.962 527.686ZM362 534L361.187 557.986L362 534ZM441.033 451.157L459.805 466.11L441.033 451.157ZM572.5 324V300V324ZM669.979 419.043L650.727 433.374V433.374L669.979 419.043ZM773.5 524L779.536 500.771L773.5 524ZM822.117 526.602L823.39 550.568L822.117 526.602ZM881.5 536.5L894.961 516.63L881.5 536.5ZM917.719 611.08L940.645 603.981L917.719 611.08ZM944.5 670L930.709 689.642L944.5 670ZM1048.35 722.585L1070.94 730.699L1078.94 708.435L1056.79 700.117L1048.35 722.585ZM123.203 634.881C115.191 642.292 98.2981 654.819 78.0982 668.897C58.3558 682.657 36.7934 696.983 20.4015 707.719L46.7001 747.873C63.2637 737.025 85.2587 722.414 105.544 708.277C125.371 694.458 144.975 680.129 155.797 670.118L123.203 634.881ZM181.628 568.581C163.742 591.157 145.066 614.658 123.203 634.881L155.797 670.118C180.813 646.978 201.69 620.554 219.252 598.388L181.628 568.581ZM274.5 496C252.949 496 235.488 508.791 222.377 521.274C208.807 534.194 195.103 551.572 181.628 568.581L219.252 598.388C233.422 580.502 244.867 566.138 255.474 556.039C266.54 545.503 272.287 544 274.5 544V496ZM331.934 504.441C317.233 500.664 299.285 496 274.5 496V544C292.801 544 305.734 547.269 319.99 550.931L331.934 504.441ZM362.813 510.014C352.579 509.667 343.865 507.506 331.934 504.441L319.99 550.931C331.524 553.895 345.012 557.438 361.187 557.986L362.813 510.014ZM422.26 436.203C404.402 458.623 388.344 478.766 375.209 493.3C368.603 500.61 363.392 505.76 359.559 508.887C358.653 509.627 357.927 510.168 357.372 510.55C357.099 510.738 356.888 510.873 356.737 510.965C356.585 511.058 356.513 511.095 356.518 511.092C356.523 511.09 356.633 511.033 356.843 510.946C357.052 510.859 357.4 510.726 357.878 510.586C358.787 510.322 360.505 509.935 362.813 510.014L361.187 557.986C368.676 558.24 374.855 555.659 378.665 553.678C382.786 551.535 386.586 548.786 389.907 546.076C396.557 540.65 403.678 533.388 410.821 525.484C425.184 509.59 442.292 488.096 459.805 466.11L422.26 436.203ZM572.5 300C556.957 300 542.611 308.258 531.691 316.197C519.901 324.77 507.646 336.347 495.6 349.015C471.482 374.38 445.465 407.071 422.26 436.203L459.805 466.11C483.384 436.508 508.011 405.622 530.385 382.091C541.585 370.312 551.539 361.113 559.918 355.02C569.168 348.295 572.953 348 572.5 348V300ZM689.23 404.712C671.476 380.863 652.932 355.9 635.304 337.006C626.46 327.527 617.088 318.735 607.397 312.174C597.946 305.775 586.006 300 572.5 300V348C572.358 348 574.782 348.058 580.486 351.92C585.951 355.621 592.526 361.518 600.208 369.752C615.634 386.285 632.466 408.844 650.727 433.374L689.23 404.712ZM779.536 500.771C771.294 498.63 758.419 489.339 740.97 470.145C724.398 451.916 707.123 428.748 689.23 404.712L650.727 433.374C668.239 456.898 686.985 482.118 705.453 502.433C723.044 521.783 744.227 541.191 767.464 547.229L779.536 500.771ZM820.844 502.636C804.645 503.496 791.956 503.999 779.536 500.771L767.464 547.229C788.176 552.61 808.187 551.376 823.39 550.568L820.844 502.636ZM894.961 516.63C869.361 499.288 840.745 501.579 820.844 502.636L823.39 550.568C846.207 549.356 857.906 549.505 868.04 556.37L894.961 516.63ZM940.645 603.981C936.011 589.018 930.73 571.871 924.324 557.038C918.291 543.071 909.365 526.387 894.961 516.63L868.04 556.37C870.245 557.864 874.698 563.196 880.258 576.07C885.443 588.076 889.967 602.594 894.792 618.179L940.645 603.981ZM958.291 650.358C959.119 650.939 956.619 648.986 952.285 638.458C948.476 629.203 944.839 617.526 940.645 603.981L894.792 618.179C898.794 631.103 903.093 645.055 907.898 656.729C912.179 667.128 918.972 681.401 930.709 689.642L958.291 650.358ZM1056.79 700.117C1023.32 687.548 993.574 675.131 958.291 650.358L930.709 689.642C970.871 717.841 1005 731.94 1039.91 745.053L1056.79 700.117ZM1025.76 714.471C954.224 913.627 763.708 1056 540 1056V1104C784.597 1104 992.768 948.309 1070.94 730.699L1025.76 714.471ZM540 1056C318.162 1056 128.962 915.998 56.0525 719.449L11.0491 736.143C90.7129 950.899 297.447 1104 540 1104V1056Z" fill="#252525" mask="url(#path-5-inside-1_2149_30)"/>
<mask id="path-7-inside-2_2149_30" fill="white">
<path fill-rule="evenodd" clip-rule="evenodd" d="M976.844 857.502C916.292 839.569 847.042 810.802 812.5 767.5C773.269 718.319 761.434 687.269 751.534 661.298C745.633 645.816 740.419 632.138 730.5 617.5C720.349 602.52 703.583 598.265 687.076 594.076C669.482 589.61 652.183 585.22 643.5 568C632.511 546.208 629.725 533.214 626.077 516.199C624.378 508.271 622.491 499.47 619.5 488.5C614.339 469.571 601.64 458.598 589.108 447.772C575.819 436.29 562.719 424.971 559 404.5C553.302 373.137 572.5 324 572.5 324C599.227 324 633.964 370.663 669.979 419.043C705.383 466.602 742.021 515.82 773.5 524C790.066 528.305 806.416 527.436 822.117 526.602C843.476 525.467 863.633 524.397 881.5 536.5C898.109 547.751 908.259 580.532 917.718 611.08C925.914 637.548 933.591 662.34 944.5 670C982.222 696.486 1014.16 709.744 1048.35 722.585C1030.9 771.161 1006.69 816.512 976.844 857.502Z"/>
</mask>
<path fill-rule="evenodd" clip-rule="evenodd" d="M976.844 857.502C916.292 839.569 847.042 810.802 812.5 767.5C773.269 718.319 761.434 687.269 751.534 661.298C745.633 645.816 740.419 632.138 730.5 617.5C720.349 602.52 703.583 598.265 687.076 594.076C669.482 589.61 652.183 585.22 643.5 568C632.511 546.208 629.725 533.214 626.077 516.199C624.378 508.271 622.491 499.47 619.5 488.5C614.339 469.571 601.64 458.598 589.108 447.772C575.819 436.29 562.719 424.971 559 404.5C553.302 373.137 572.5 324 572.5 324C599.227 324 633.964 370.663 669.979 419.043C705.383 466.602 742.021 515.82 773.5 524C790.066 528.305 806.416 527.436 822.117 526.602C843.476 525.467 863.633 524.397 881.5 536.5C898.109 547.751 908.259 580.532 917.718 611.08C925.914 637.548 933.591 662.34 944.5 670C982.222 696.486 1014.16 709.744 1048.35 722.585C1030.9 771.161 1006.69 816.512 976.844 857.502Z" fill="#2BA153"/>
<path d="M812.5 767.5L831.262 752.534L812.5 767.5ZM976.844 857.502L970.029 880.514L986.275 885.326L996.247 871.628L976.844 857.502ZM751.534 661.298L773.96 652.75L773.96 652.75L751.534 661.298ZM730.5 617.5L710.632 630.963L730.5 617.5ZM687.076 594.076L681.172 617.338L681.172 617.338L687.076 594.076ZM643.5 568L664.929 557.194H664.929L643.5 568ZM626.077 516.199L649.544 511.168V511.168L626.077 516.199ZM619.5 488.5L596.345 494.813L619.5 488.5ZM589.108 447.772L573.418 465.932H573.418L589.108 447.772ZM559 404.5L582.613 400.21L559 404.5ZM572.5 324L572.5 300L556.11 300L550.145 315.266L572.5 324ZM669.979 419.043L650.727 433.374L669.979 419.043ZM773.5 524L767.464 547.229H767.464L773.5 524ZM822.117 526.602L823.39 550.568H823.39L822.117 526.602ZM881.5 536.5L894.96 516.63L881.5 536.5ZM917.718 611.08L940.644 603.981L917.718 611.08ZM944.5 670L958.291 650.358L944.5 670ZM1048.35 722.585L1070.94 730.699L1078.94 708.435L1056.79 700.117L1048.35 722.585ZM793.738 782.466C814.027 807.902 843.359 827.808 874.041 843.408C904.977 859.137 938.915 871.299 970.029 880.514L983.66 834.49C954.222 825.772 923.258 814.584 895.796 800.621C868.078 786.528 845.514 770.4 831.262 752.534L793.738 782.466ZM729.108 669.846C739.496 697.099 752.397 730.64 793.738 782.466L831.262 752.534C794.141 705.998 783.371 677.439 773.96 652.75L729.108 669.846ZM710.632 630.963C718.788 642.999 723.146 654.203 729.108 669.846L773.96 652.75C768.12 637.428 762.051 621.277 750.368 604.036L710.632 630.963ZM681.172 617.338C699.374 621.958 706.409 624.732 710.632 630.963L750.368 604.036C734.289 580.309 707.792 574.573 692.98 570.813L681.172 617.338ZM622.07 578.806C636.437 607.296 665.697 613.411 681.172 617.338L692.98 570.813C683.64 568.443 677.555 566.795 672.688 564.359C668.612 562.319 666.455 560.22 664.929 557.194L622.07 578.806ZM602.611 521.23C606.404 538.923 609.701 554.276 622.07 578.806L664.929 557.194C655.322 538.141 653.047 527.506 649.544 511.168L602.611 521.23ZM596.345 494.813C599.147 505.091 600.916 513.327 602.611 521.23L649.544 511.168C647.839 503.215 645.834 493.85 642.655 482.187L596.345 494.813ZM573.418 465.932C586.415 477.161 593.35 483.826 596.345 494.813L642.655 482.187C635.329 455.316 616.864 440.035 604.799 429.611L573.418 465.932ZM535.386 408.79C540.801 438.592 560.656 454.906 573.418 465.932L604.799 429.611C590.982 417.673 584.637 411.351 582.613 400.21L535.386 408.79ZM572.5 324C550.145 315.266 550.144 315.27 550.143 315.274C550.142 315.275 550.14 315.279 550.139 315.282C550.137 315.288 550.134 315.295 550.131 315.303C550.125 315.318 550.118 315.336 550.11 315.358C550.093 315.4 550.072 315.455 550.047 315.521C549.995 315.654 549.927 315.834 549.842 316.058C549.672 316.507 549.436 317.136 549.146 317.929C548.567 319.513 547.767 321.758 546.837 324.53C544.983 330.054 542.571 337.781 540.342 346.619C536.138 363.287 531.556 387.707 535.386 408.79L582.613 400.21C580.746 389.93 582.914 374.1 586.884 358.359C588.742 350.992 590.774 344.475 592.342 339.805C593.122 337.481 593.777 335.642 594.226 334.416C594.45 333.804 594.621 333.347 594.729 333.061C594.784 332.918 594.822 332.818 594.843 332.762C594.854 332.735 594.86 332.719 594.862 332.714C594.863 332.711 594.863 332.712 594.862 332.715C594.861 332.717 594.86 332.719 594.859 332.722C594.858 332.724 594.857 332.727 594.857 332.728C594.855 332.731 594.854 332.734 572.5 324ZM689.23 404.712C671.476 380.863 652.932 355.9 635.304 337.006C626.46 327.527 617.088 318.735 607.397 312.174C597.946 305.775 586.005 300 572.5 300L572.5 348C572.358 348 574.782 348.058 580.486 351.92C585.951 355.621 592.525 361.518 600.208 369.752C615.634 386.285 632.466 408.844 650.727 433.374L689.23 404.712ZM779.536 500.771C771.294 498.63 758.419 489.339 740.97 470.145C724.398 451.916 707.123 428.748 689.23 404.712L650.727 433.374C668.238 456.898 686.984 482.118 705.453 502.433C723.044 521.783 744.227 541.191 767.464 547.229L779.536 500.771ZM820.844 502.636C804.645 503.496 791.956 503.999 779.536 500.771L767.464 547.229C788.176 552.61 808.186 551.376 823.39 550.568L820.844 502.636ZM894.96 516.63C869.361 499.288 840.745 501.579 820.843 502.636L823.39 550.568C846.206 549.356 857.906 549.505 868.039 556.37L894.96 516.63ZM940.644 603.981C936.011 589.018 930.73 571.871 924.323 557.038C918.291 543.071 909.364 526.387 894.96 516.63L868.039 556.37C870.245 557.864 874.697 563.196 880.257 576.07C885.443 588.076 889.966 602.594 894.792 618.179L940.644 603.981ZM958.291 650.358C959.118 650.939 956.619 648.986 952.285 638.458C948.475 629.203 944.838 617.526 940.644 603.981L894.792 618.179C898.794 631.103 903.093 645.055 907.898 656.729C912.179 667.128 918.972 681.401 930.709 689.642L958.291 650.358ZM1056.79 700.117C1023.32 687.548 993.574 675.131 958.291 650.358L930.709 689.642C970.871 717.841 1005 731.94 1039.91 745.053L1056.79 700.117ZM1025.76 714.471C1009.1 760.871 985.964 804.202 957.442 843.376L996.247 871.628C1027.41 828.823 1052.71 781.452 1070.94 730.699L1025.76 714.471Z" fill="#252525" mask="url(#path-7-inside-2_2149_30)"/>
<mask id="path-9-inside-3_2149_30" fill="white">
<path fill-rule="evenodd" clip-rule="evenodd" d="M403.857 1062.17C501.697 912.727 450.799 845.525 401.129 779.944C376.568 747.516 352.307 715.483 346.478 674.1C342.574 651.282 350.569 631.349 357.582 613.867C362.247 602.235 366.478 591.689 366.478 582.1C366.478 544.041 348 532.7 348 532.7C348 532.7 359.5 534.8 363 534.1C368 533.1 375 527.4 375 527.4C375 527.4 405.16 553.6 410.976 582.1C413.011 592.07 412.296 598.7 411.53 605.795C410.376 616.492 409.108 628.248 416.976 654.1C432.436 704.897 477.371 727.742 528.477 753.725C558.26 768.867 590.138 785.074 619.5 808.5C696.318 869.787 753.829 948.76 793.709 1016.66C718.184 1056.84 631.989 1079.6 540.477 1079.6C493.278 1079.6 447.493 1073.54 403.857 1062.17Z"/>
</mask>
<path fill-rule="evenodd" clip-rule="evenodd" d="M403.857 1062.17C501.697 912.727 450.799 845.525 401.129 779.944C376.568 747.516 352.307 715.483 346.478 674.1C342.574 651.282 350.569 631.349 357.582 613.867C362.247 602.235 366.478 591.689 366.478 582.1C366.478 544.041 348 532.7 348 532.7C348 532.7 359.5 534.8 363 534.1C368 533.1 375 527.4 375 527.4C375 527.4 405.16 553.6 410.976 582.1C413.011 592.07 412.296 598.7 411.53 605.795C410.376 616.492 409.108 628.248 416.976 654.1C432.436 704.897 477.371 727.742 528.477 753.725C558.26 768.867 590.138 785.074 619.5 808.5C696.318 869.787 753.829 948.76 793.709 1016.66C718.184 1056.84 631.989 1079.6 540.477 1079.6C493.278 1079.6 447.493 1073.54 403.857 1062.17Z" fill="#2E6DE0"/>
<path d="M403.857 1062.17L383.778 1049.02L365.483 1076.97L397.802 1085.39L403.857 1062.17ZM401.129 779.944L381.997 794.435L401.129 779.944ZM346.478 674.1L370.243 670.753L370.194 670.402L370.134 670.052L346.478 674.1ZM357.582 613.867L379.857 622.802V622.802L357.582 613.867ZM348 532.7L352.312 509.09L335.446 553.154L348 532.7ZM363 534.1L367.707 557.634H367.707L363 534.1ZM375 527.4L390.74 509.282L375.5 496.043L359.846 508.789L375 527.4ZM410.976 582.1L434.492 577.301V577.301L410.976 582.1ZM411.53 605.795L435.392 608.369V608.369L411.53 605.795ZM416.976 654.1L439.937 647.112V647.112L416.976 654.1ZM528.477 753.725L539.354 732.331H539.354L528.477 753.725ZM619.5 808.5L604.533 827.261L619.5 808.5ZM793.709 1016.66L804.98 1037.85L827.082 1026.1L814.404 1004.51L793.709 1016.66ZM423.937 1075.31C474.705 997.771 489.456 937.605 481.532 885.968C473.766 835.371 444.555 797.53 420.261 765.454L381.997 794.435C407.373 827.94 428.446 856.49 434.087 893.249C439.569 928.968 430.85 977.124 383.778 1049.02L423.937 1075.31ZM420.261 765.454C395.057 732.177 375.064 704.977 370.243 670.753L322.712 677.447C329.55 725.99 358.078 762.854 381.997 794.435L420.261 765.454ZM370.134 670.052C367.531 654.84 372.559 640.995 379.857 622.802L335.307 604.933C328.58 621.703 317.617 647.725 322.822 678.147L370.134 670.052ZM379.857 622.802C383.949 612.6 390.478 597.308 390.478 582.1H342.478C342.478 586.069 340.546 591.871 335.307 604.933L379.857 622.802ZM390.478 582.1C390.478 558.993 384.811 542.271 377.742 530.653C374.265 524.937 370.604 520.716 367.481 517.728C365.925 516.238 364.51 515.062 363.327 514.162C362.735 513.712 362.201 513.33 361.736 513.013C361.503 512.854 361.287 512.711 361.09 512.583C360.992 512.519 360.897 512.459 360.808 512.403C360.763 512.375 360.72 512.348 360.678 512.321C360.657 512.308 360.636 512.295 360.615 512.283C360.605 512.276 360.59 512.267 360.585 512.264C360.569 512.254 360.554 512.245 348 532.7C335.446 553.154 335.431 553.145 335.416 553.136C335.412 553.133 335.397 553.124 335.387 553.118C335.368 553.106 335.348 553.094 335.33 553.083C335.292 553.059 335.255 553.036 335.219 553.013C335.148 552.968 335.08 552.925 335.016 552.884C334.889 552.802 334.777 552.727 334.68 552.66C334.485 552.528 334.348 552.427 334.262 552.361C334.089 552.23 334.118 552.237 334.293 552.405C334.635 552.732 335.594 553.726 336.736 555.602C338.906 559.169 342.478 567.147 342.478 582.1H390.478ZM348 532.7C343.689 556.309 343.69 556.31 343.692 556.31C343.692 556.31 343.694 556.31 343.695 556.31C343.697 556.311 343.699 556.311 343.701 556.312C343.706 556.313 343.712 556.314 343.718 556.315C343.731 556.317 343.746 556.32 343.765 556.323C343.801 556.33 343.849 556.338 343.907 556.349C344.023 556.369 344.181 556.397 344.376 556.432C344.766 556.5 345.309 556.593 345.965 556.7C347.261 556.913 349.068 557.195 351.045 557.456C352.969 557.71 355.337 557.983 357.678 558.129C359.291 558.23 363.459 558.483 367.707 557.634L358.293 510.566C359.205 510.384 359.9 510.313 360.259 510.283C360.645 510.25 360.904 510.245 360.997 510.243C361.16 510.241 361.079 510.248 360.681 510.223C359.882 510.173 358.719 510.052 357.33 509.869C355.995 509.693 354.709 509.493 353.739 509.334C353.262 509.256 352.879 509.19 352.626 509.146C352.5 509.124 352.408 509.107 352.354 509.098C352.327 509.093 352.309 509.09 352.302 509.089C352.298 509.088 352.297 509.088 352.299 509.088C352.3 509.088 352.301 509.088 352.303 509.089C352.304 509.089 352.305 509.089 352.307 509.089C352.308 509.09 352.309 509.09 352.309 509.09C352.31 509.09 352.312 509.09 348 532.7ZM367.707 557.634C375.094 556.156 381.428 552.146 383.992 550.473C385.716 549.348 387.18 548.291 388.215 547.516C388.741 547.122 389.176 546.786 389.503 546.53C389.666 546.402 389.804 546.292 389.913 546.205C389.968 546.161 390.015 546.123 390.055 546.091C390.076 546.074 390.094 546.06 390.11 546.046C390.119 546.04 390.126 546.033 390.134 546.027C390.137 546.024 390.141 546.021 390.144 546.019C390.146 546.017 390.149 546.015 390.149 546.014C390.152 546.012 390.154 546.01 375 527.4C359.846 508.789 359.849 508.787 359.851 508.785C359.852 508.785 359.854 508.783 359.855 508.782C359.858 508.779 359.861 508.777 359.864 508.775C359.87 508.77 359.875 508.766 359.88 508.762C359.89 508.754 359.898 508.747 359.905 508.742C359.918 508.731 359.926 508.725 359.928 508.723C359.932 508.72 359.914 508.734 359.877 508.764C359.801 508.823 359.65 508.94 359.442 509.096C359.008 509.421 358.409 509.852 357.758 510.276C357.072 510.725 356.571 511.006 356.311 511.135C355.874 511.352 356.63 510.899 358.293 510.566L367.707 557.634ZM375 527.4C359.261 545.518 359.257 545.515 359.253 545.512C359.252 545.511 359.249 545.508 359.247 545.506C359.242 545.502 359.238 545.499 359.235 545.496C359.228 545.49 359.223 545.485 359.219 545.482C359.213 545.476 359.213 545.476 359.22 545.482C359.233 545.494 359.274 545.53 359.34 545.589C359.472 545.708 359.705 545.917 360.025 546.213C360.667 546.806 361.653 547.736 362.882 548.958C365.359 551.421 368.727 554.973 372.226 559.253C379.701 568.396 385.727 578.404 387.461 586.899L434.492 577.301C430.409 557.296 418.447 539.954 409.388 528.872C404.62 523.039 400.085 518.26 396.725 514.919C395.036 513.24 393.62 511.901 392.59 510.95C392.074 510.473 391.653 510.092 391.341 509.813C391.184 509.673 391.055 509.558 390.954 509.47C390.904 509.425 390.861 509.387 390.825 509.356C390.807 509.34 390.791 509.326 390.777 509.314C390.77 509.308 390.763 509.302 390.757 509.297C390.754 509.294 390.749 509.29 390.748 509.289C390.744 509.285 390.74 509.282 375 527.4ZM387.461 586.899C388.139 590.223 388.315 592.72 388.304 594.898C388.291 597.284 388.065 599.545 387.669 603.221L435.392 608.369C436.211 600.777 437.303 591.075 434.492 577.301L387.461 586.899ZM387.669 603.221C387.077 608.706 386.247 616.139 386.928 625.93C387.603 635.628 389.681 646.844 394.016 661.088L439.937 647.112C436.404 635.504 435.182 627.915 434.812 622.599C434.449 617.375 434.83 613.582 435.392 608.369L387.669 603.221ZM394.016 661.088C412.959 723.327 468.676 750.245 517.6 775.119L539.354 732.331C486.067 705.24 451.914 686.467 439.937 647.112L394.016 661.088ZM517.6 775.119C547.639 790.391 577.365 805.586 604.533 827.261L634.468 789.739C602.911 764.562 568.88 747.343 539.354 732.331L517.6 775.119ZM604.533 827.261C678.242 886.068 733.988 962.367 773.014 1028.82L814.404 1004.51C773.671 935.154 714.394 853.506 634.468 789.739L604.533 827.261ZM782.438 995.474C710.299 1033.85 627.964 1055.6 540.477 1055.6V1103.6C636.014 1103.6 726.069 1079.83 804.98 1037.85L782.438 995.474ZM540.477 1055.6C495.338 1055.6 451.588 1049.81 409.912 1038.94L397.802 1085.39C443.398 1097.28 491.217 1103.6 540.477 1103.6V1055.6Z" fill="#252525" mask="url(#path-9-inside-3_2149_30)"/>
</g>
<defs>
<linearGradient id="paint0_linear_2149_30" x1="540" y1="108" x2="540" y2="631" gradientUnits="userSpaceOnUse">
<stop stop-color="#FF9500"/>
<stop offset="1" stop-color="#DC8000"/>
</linearGradient>
<linearGradient id="paint1_linear_2149_30" x1="361" y1="256" x2="361" y2="614" gradientUnits="userSpaceOnUse">
<stop stop-color="#FF9500"/>
<stop offset="1" stop-color="#DC8000"/>
</linearGradient>
<linearGradient id="paint2_linear_2149_30" x1="719" y1="256" x2="719" y2="614" gradientUnits="userSpaceOnUse">
<stop stop-color="#FF9500"/>
<stop offset="1" stop-color="#DC8000"/>
</linearGradient>
<clipPath id="clip0_2149_30">
<rect width="1080" height="1080" fill="white"/>
</clipPath>
</defs>
</svg>
